<svg version="1.1" width="200" height="200" viewBox="0 0 200 200"
   xmlns="http://www.w3.org/2000/svg"
   xmlns:svg="http://www.w3.org/2000/svg">
   <path style="fill:#217f1a;stroke:#d2ffcc;stroke-width:2" d="m 10.6,130.0 c -0.7,5.2 -0.7,10.4 -0.5,15.6 4.8,-0.3 9.4,-1.6 14.1,-2.8 -0.3,-4.0 -0.3,-8.0 0.3,-12.2 -3.1,-4.3 -6.5,-8.4 -13.9,-0.7 z" id="path1" />
   <path style="fill:#217f1a;stroke:#d2ffcc;stroke-width:2" d="m 86.2,180.5 c -4.2,5.0 -9.7,7.3 -15.3,9.6 -10.5,-8.1 -20.9,-10.9 -31.8,-34.6 l -8.5,-22.4 c -9.3,-4.4 -15.8,-3.9 -21.9,-2.8 -0.7,-2.1 -4.5,-3.1 1.2,-7.3 -2.5,-2.3 -7.7,-4.6 -0.2,-6.4 -2.9,-2.8 -7.0,-6.0 1.7,-5.7 -4.4,-4.9 -6.1,-8.5 2.4,-7.0 l 25.7,14.4 c 8.0,24.3 17.2,48.0 46.6,62.2 z" />
   <path style="fill:#217f1a;stroke:#d2ffcc;stroke-width:2" d="m 155.2,172.6 c 0.4,4.6 0.8,9.2 -1.6,13.7 -23.3,0.1 -50.4,-4.1 -82.9,-15.5 -4.5,7.0 -8.5,9.9 -12.5,11.8 -2.4,-0.5 -5.3,-0.5 -4.2,-3.7 -6.1,-2.3 -4.6,-3.9 -5.6,-5.7 -3.3,-0.8 -4.4,-2.7 -3.5,-5.4 -5.9,-1.0 -4.5,-3.4 -4.2,-5.7 5.3,-0.3 10.6,-0.6 16.9,-3.1 -3.0,-0.7 -6.7,-1.2 -7.1,-2.8 1.3,-5.1 9.5,-2.0 14.9,-2.1 28.4,11.2 59.0,14.9 89.7,18.4 z" />
   <path style="fill:#217f1a;stroke:#d2ffcc;stroke-width:2" d="m 186.7,115.6 c -19.7,14.8 -34.6,31.9 -63.6,41.2 -5.1,3.0 -9.5,4.3 -17.2,14.3 2.0,0.5 0.7,3.7 9.9,-1.7 1.4,2.8 -0.4,7.7 -5.9,15.1 1.0,1.1 2.3,1.9 6.1,0.2 2.6,4.7 5.2,1.4 7.8,0.5 2.8,4.1 5.0,1.5 7.3,0.3 2.1,2.7 4.5,2.2 7.1,-0.2 1.1,-6.1 1.3,-12.6 0.5,-19.6 22.9,-8.6 42.4,-19.7 53.7,-37.0 0.2,-5.9 0.9,-11.3 -5.7,-13.0 z" />
   <path style="fill:#217f1a;stroke:#d2ffcc;stroke-width:2" d="m 168.1,55.6 15.3,-9.6 c 0.6,26.6 -0.8,52.0 -11.3,71.3 10.4,5.3 11.6,10.5 17.0,15.8 -0.2,2.5 -0.6,4.9 -4.0,3.3 0.2,2.4 2.9,6.4 -3.3,4.5 -0.6,2.7 1.1,7.5 -5.0,5.0 -1.3,3.3 -2.5,6.7 -7.0,6.4 0.6,-6.2 -0.6,-10.1 -1.7,-14.1 -2.8,-5.4 -8.6,-0.4 -14.1,3.7 7.8,-36.0 12.9,-60.8 14.1,-86.4 z" />
   <path style="fill:#217f1a;stroke:#d2ffcc;stroke-width:2" d="m 111.3,17.9 13.4,-11.8 c 16.5,17.0 37.1,33.6 40.9,54.9 6.7,-2.1 13.4,-2.0 20.2,-1.4 2.3,1.1 3.7,2.5 1.9,5.0 0.6,2.0 4.6,4.3 0.2,5.9 0.5,3.1 3.7,7.1 -1.7,8.0 3.4,3.5 5.0,10.9 0.5,8.0 -4.5,-2.9 -11.2,-9.0 -18.3,-5.7 -2.2,5.4 -2.3,16.0 -6.6,16.3 C 153.9,60.5 138.5,43.3 111.3,17.9 Z" />
   <path style="fill:#217f1a;stroke:#d2ffcc;stroke-width:2" d="m 44.9,32.4 c 25.1,-0.1 49.9,1.7 74.1,6.3 4.9,3.4 10.3,6.7 12.5,11.5 3.7,0.5 6.6,0.1 9.4,-0.3 l -7.1,-10.4 c 10.0,-7.8 15.1,-7.7 18.3,-4.5 4.6,-2.4 0.1,-3.5 -0.7,-5.0 1.4,-2.8 1.3,-5.2 -2.8,-6.6 -0.3,-5.5 -3.0,-3.8 -4.5,-5.6 -0.3,-2.5 -0.5,-5.0 -5.4,-4.3 -6.2,3.7 -12.2,7.5 -16.2,12.5 C 67.4,10.0 63.2,17.8 45.0,18.3 Z" />
   <path style="fill:#217f1a;stroke:#d2ffcc;stroke-width:2" d="M 14.6,78.8 C 36.8,59.9 62.5,43.4 90.2,39.1 c 1.7,-1.0 2.7,-2.2 1.2,-3.7 L 86.8,33.7 C 80.0,25.8 84.2,20.3 89.7,15.1 89.0,12.6 87.5,10.8 83.1,12.0 81.4,9.1 79.2,9.9 77.0,11.1 74.3,7.3 72.2,8.4 70.4,11.0 67.8,8.9 66.0,10.1 64.3,12.2 63.3,18.3 62.2,24.5 63.5,30.6 39.1,41.0 18.6,54.5 2.1,70.9 Z" />
   <path style="fill:#217f1a;stroke:#d2ffcc;stroke-width:2" d="M 14.9,104.3 25.9,72.4 15.0,56.6 c 0.7,-2.9 0.1,-6.3 5.7,-5.0 -0.5,-4.5 2.0,-4.1 4.3,-4.2 -0.5,-2.6 1.0,-4.2 5.0,-3.6 2.1,-3.1 5.9,-5.3 5.0,-2.2 -1.6,4.7 -1.3,8.5 -0.3,12.2 6.4,10.1 9.1,-2.9 11.6,1.0 -1.0,9.1 -2.0,8.4 -3.0,12.6 -9.3,14.5 -12.2,29.0 -16.6,43.5 z" />
</svg>
