<svg width="200" height="200" viewBox="0 0 200 200" version="1.1"
   xmlns="http://www.w3.org/2000/svg"
   xmlns:svg="http://www.w3.org/2000/svg">
   <path style="fill:none;stroke:#ff71fc;stroke-width:2" d="m 83.0,100.5 c -0.4,-7.5 7.0,-13.9 16.3,-14.2 9.4,-0.3 17.3,5.6 17.6,13.1 0.4,7.5 -6.9,13.9 -16.3,14.2 -9.4,0.3 -17.3,-5.6 -17.7,-13.1 M 55.1,99.8 c -0.1,4.5 4.2,4.4 5.0,4.3 0.7,-0.0 2.0,-1.1 2.0,-1.1 -1.4,3.0 -2.4,3.8 -7.7,3.7 -3.0,0.0 -7.2,-1.1 -12.6,-3.4 H 4.1 c -0.3,-1.1 -0.4,-1.9 -0.4,-3.5 m 91.2,23.6 -0.1,54.0 c -2.7,8.2 -5.5,6.5 -4.2,7.7 1.5,1.5 4.9,1.8 9.3,1.8 m 0,-61.2 c -2.6,-0.5 -3.9,-1.1 -5.0,-2.4 -1.6,-1.9 -1.6,-3.4 -1.7,-4.7 M 65.5,100.0 c 3.7,1.3 7.3,2.9 10.5,5.8 4.0,3.4 6.5,3.8 8.9,4.0 -1.6,6.4 -4.0,12.3 -6.8,18.0 5.0,-3.0 10.1,-6.0 15.2,-8.9 1.8,-1.0 3.7,-1.8 6.7,-1.7 m -13.7,27.7 8.7,10.3 -10.1,4.9 m -3.0,-13.0 v 8.6 M 71.2,143.6 c 0,0 -4.7,3.8 -5.6,6.6 -4.8,13.9 9.4,19.5 25.9,21.6 m -28.6,-36.2 c 0.1,3.7 -2.7,6.8 -6.3,7.0 -3.6,0.1 -6.7,-2.7 -6.8,-6.4 -0.1,-3.7 2.7,-6.8 6.3,-7.0 3.6,-0.1 6.7,2.7 6.8,6.4 m -35.7,-21.7 c -0.6,-3.0 -1.2,-5.7 -1.1,-10.4 m 18.1,19.2 c 2.8,-4.5 7.0,-7.7 11.7,-10.4 m -28.7,1.6 c 8.3,3.2 16.7,6.2 21.8,14.4 m 11.2,-5.3 c -6.6,1.3 -8.7,2.9 -11.2,5.3 -3.6,3.5 -3.0,9.0 -3.2,13.4 M 27.1,113.8 c 3.6,13.6 7.0,20.3 18.6,27.8 6.5,4.6 13.8,6.0 21.6,5.4 M 62.1,103.1 c -0.8,0.5 3.9,31.8 19.8,44.0 0,0.2 9.0,-6.8 9.4,-11.8 0.4,-4.4 -3.0,-10.8 -6.2,-11.7 m -30.7,-16.8 c 0,0 0.9,3.7 1.5,5.5 1.2,3.6 2.7,7.2 4.3,10.7 3.3,7.1 6.6,14.3 11.0,20.7 2.9,4.2 7.6,8.0 10.7,12.0 1.3,1.6 1.9,2.7 3.0,4.4 2.4,3.8 4.7,7.6 6.6,11.7 1.2,2.5 3.5,5.9 3.5,5.9 m 50.0,-77.4 c 0.1,3.1 -2.1,3.9 -5.0,4.0 -0.7,-0.0 -2.0,-1.1 -2.0,-1.1 1.4,3.0 2.4,3.8 7.7,3.7 2.2,0.0 4.4,-0.6 6.5,-1.1 2.1,-0.6 6.1,-2.2 6.1,-2.2 h 37.7 c 0.3,-1.1 0.4,-1.9 0.4,-3.5 m -91.2,23.6 0.1,54.0 c 0.1,3.4 4.0,5.2 4.2,7.7 -1.5,1.5 -4.9,1.8 -9.3,1.8 m 0,-61.2 c 6.2,-0.7 6.7,-5.7 6.7,-7.1 m 27.8,-18.8 c -3.7,1.3 -7.3,2.9 -10.5,5.8 -4.0,3.4 -6.5,3.8 -8.9,4.0 1.6,6.4 4.0,12.3 6.8,18.0 -5.0,-3.0 -10.1,-6.0 -15.2,-8.9 -1.8,-1.0 -3.7,-1.8 -6.7,-1.7 m 13.7,27.7 -8.7,10.3 10.1,4.9 m 3.0,-13.0 v 8.6 m 10.7,-12.0 c 0,0 4.7,3.8 5.6,6.6 4.8,13.9 -9.4,19.5 -25.9,21.6 m 28.6,-36.2 c -0.1,3.7 2.7,6.8 6.3,7.0 3.6,0.1 6.7,-2.7 6.8,-6.4 0.1,-3.7 -2.7,-6.8 -6.3,-7.0 -3.6,-0.1 -6.7,2.7 -6.8,6.4 m 35.7,-21.7 c 0.6,-3.0 1.2,-5.7 1.1,-10.4 m -18.1,19.2 c -2.8,-4.5 -7.0,-7.7 -11.7,-10.4 m 28.7,1.6 c -8.3,3.2 -16.7,6.2 -21.8,14.4 m -11.2,-5.3 c 6.6,1.3 8.7,2.9 11.2,5.3 3.6,3.5 3.0,9.0 3.2,13.4 m 18.6,-27.8 c -3.6,13.6 -7.0,20.3 -18.6,27.8 -6.5,4.6 -13.8,6.0 -21.6,5.4 M 137.9,103.1 c 0.8,0.5 -3.9,31.8 -19.8,44.0 0,0.2 -9.0,-6.8 -9.4,-11.8 -0.4,-4.4 3.0,-10.8 6.2,-11.7 m 30.7,-16.8 c 0,0 -0.9,3.7 -1.5,5.5 -1.2,3.6 -2.7,7.2 -4.3,10.7 -3.3,7.1 -6.6,14.3 -11.0,20.7 -2.9,4.2 -7.6,8.0 -10.7,12.0 -1.3,1.6 -1.9,2.7 -3.0,4.4 -2.4,3.8 -4.7,7.6 -6.6,11.7 -1.2,2.5 -3.5,5.9 -3.5,5.9 M 55.1,99.8 c -0.1,-4.2 4.5,-4.0 5.0,-4.0 0.7,0.0 2.0,1.1 2.0,1.1 -1.4,-3.0 -2.4,-3.8 -7.7,-3.7 -3.0,-0.0 -7.2,1.1 -12.6,3.4 H 4.1 C 3.8,97.7 3.7,98.5 3.8,100 M 95.0,76.4 94.2,20.6 c 0.8,-2.8 -3.4,-4.1 -3.5,-6.0 1.5,-1.5 4.9,-1.8 9.3,-1.8 m 0,61.2 c -2.6,0.5 -3.9,1.1 -5.0,2.4 -1.6,1.9 -1.6,3.4 -1.7,4.7 M 65.5,100.0 c 3.7,-1.3 7.3,-2.9 10.5,-5.8 4.0,-3.4 6.5,-3.8 8.9,-4.0 -1.6,-6.4 -4.0,-12.3 -6.8,-18.0 5.0,3.0 10.1,6.0 15.2,8.9 1.8,1.0 3.7,1.8 6.7,1.7 M 86.3,55.2 94.9,44.8 84.8,40.0 m -3.0,13.0 v -8.6 M 71.2,56.4 C 61.3,48.2 58.2,32.5 91.4,28.3 M 62.8,64.5 c 0.1,-3.7 -2.7,-6.8 -6.3,-7.0 -3.6,-0.1 -6.7,2.7 -6.8,6.4 -0.1,3.7 2.7,6.8 6.3,7.0 3.6,0.1 6.7,-2.7 6.8,-6.4 M 27.1,86.2 c -0.6,3.0 -1.2,5.7 -1.1,10.4 m 18.1,-19.2 c 2.8,4.5 7.0,7.7 11.7,10.4 M 27.1,86.2 C 35.4,83.0 43.9,80.0 48.9,71.7 m 11.2,5.3 C 53.5,75.7 51.4,74.2 48.9,71.7 45.3,68.3 45.9,62.8 45.7,58.3 M 27.1,86.2 c 3.6,-13.6 7.0,-20.3 18.6,-27.8 6.5,-4.6 13.8,-6.0 21.6,-5.4 m -5.2,44.0 c -0.8,-0.5 3.9,-31.8 19.8,-44.0 0,-0.0 4.9,1.7 6.6,4.4 7.8,12.4 -3.3,19.0 -3.4,19.0 m -30.7,16.8 c 0,0 0.9,-3.7 1.5,-5.5 1.2,-3.6 2.7,-7.2 4.3,-10.7 3.3,-7.1 6.6,-14.3 11.0,-20.7 2.9,-4.2 7.6,-8.0 10.7,-12.0 1.3,-1.6 1.9,-2.7 3.0,-4.4 2.4,-3.8 4.7,-7.6 6.6,-11.7 1.2,-2.5 2.8,-7.6 2.8,-7.6 m 50.7,79.5 c 0.1,-3.1 -2.1,-4.3 -5.0,-4.3 -0.7,0.0 -2.0,1.1 -2.0,1.1 1.4,-3.0 2.4,-3.8 7.7,-3.7 2.2,-0.0 4.4,0.6 6.5,1.1 2.1,0.6 6.1,2.2 6.1,2.2 h 37.7 c 0.3,1.1 0.4,1.9 0.4,3.5 m -91.2,-23.6 0.8,-55.8 c -0.5,-3.2 3.3,-3.4 3.5,-6.0 -1.5,-1.5 -4.9,-1.8 -9.3,-1.8 m 0,61.2 c 2.6,0.5 3.9,1.1 5.0,2.4 1.6,1.9 1.6,3.4 1.7,4.7 m 27.8,18.8 c -3.7,-1.3 -7.3,-2.9 -10.5,-5.8 -4.0,-3.4 -6.5,-3.8 -8.9,-4.0 1.6,-6.4 4.0,-12.3 6.8,-18.0 -5.0,3.0 -10.1,6.0 -15.2,8.9 -1.8,1.0 -3.7,1.8 -6.7,1.7 M 113.7,55.2 l -8.7,-10.3 10.1,-4.9 m 3.0,13.0 0.5,-7.9 m 10.2,11.4 c 9.8,-8.2 13.0,-24.0 -20.3,-28.1 m 28.6,36.2 c -0.1,-3.7 2.7,-6.8 6.3,-7.0 3.6,-0.1 6.7,2.7 6.8,6.4 0.1,3.7 -2.7,6.8 -6.3,7.0 -3.6,0.1 -6.7,-2.7 -6.8,-6.4 m 35.7,21.7 c 0.6,3.0 1.2,5.7 1.1,10.4 M 155.8,77.3 c -2.8,4.5 -7.0,7.7 -11.7,10.4 m 28.7,-1.6 c -8.3,-3.2 -16.7,-6.2 -21.8,-14.4 m -11.2,5.3 c 6.6,-1.3 8.7,-2.9 11.2,-5.3 3.6,-3.5 3.0,-9.0 3.2,-13.4 m 18.6,27.8 c -3.6,-13.6 -7.0,-20.3 -18.6,-27.8 -6.5,-4.6 -13.8,-6.0 -21.6,-5.4 m 5.2,44.0 c 0.8,-0.5 -3.9,-31.8 -19.8,-44.0 0,-0.0 -4.9,1.7 -6.6,4.4 -5.2,8.1 -2.2,17.5 3.4,19.0 m 30.7,16.8 c 0,0 -0.9,-3.7 -1.5,-5.5 -1.2,-3.6 -2.7,-7.2 -4.3,-10.7 -3.3,-7.1 -6.6,-14.3 -11.0,-20.7 -2.9,-4.2 -7.1,-7.4 -10.2,-11.4 -1.3,-1.6 -2.4,-3.3 -3.4,-5.0 -2.4,-3.8 -4.7,-7.6 -6.6,-11.7 -1.2,-2.5 -2.8,-7.6 -2.8,-7.6" />
</svg>
