<svg version="1.1" width="200" height="200" viewBox="0 0 200 200"
   xmlns="http://www.w3.org/2000/svg"
   xmlns:svg="http://www.w3.org/2000/svg">
   <path style="fill:#6b2e2e;stroke:#f9d2d2;stroke-width:2" d="m 138.2,96.2 4.8,5.5 4.5,-11.9 -4,-2.8 z m -11.4,16.1 5.5,8.4 8.5,-13.8 -5.9,-6.5 z m -66.3,-11.4 -4.8,5.8 8,14.1 4.5,-9 z M 51.6,86.8 c -0.9,0.6 -1.8,0.9 -2.8,2 1.1,3.9 2.4,7.6 3.8,11.3 L 57,95.9 c -2.2,-3 -3.7,-6 -5.4,-9.1 z M 1,111 C 20.6,99.9 38.8,88 56.1,75.7 c 1.6,1.4 3.5,2.2 3.8,6.2 l -4.1,3 5.4,7.8 c 1.8,-2.3 3.2,-3.9 4.6,-5.5 2,1.6 2.8,3.6 3.2,5.6 l -4.7,4 6.7,8.7 c 1.2,-1.3 2.3,-3.9 3.1,-5.8 1.4,1.4 2.5,3 3.2,4.7 -0.3,2.5 -0.8,3.9 -1.6,6.3 l 7.4,11.7 -2,2.3 -8.4,-8.6 -4.9,10 c 6.5,16.6 18.5,27.2 30.3,38.1 12.8,-12 24.5,-24.2 29.8,-38 l -4.7,-9.2 c -2.4,3 -5.3,5.5 -8.4,7.7 -1.3,-0.6 -1.8,-1.6 -1.8,-2.9 2.2,-3.8 4.6,-7 7.3,-9.9 -1.1,-1.9 -2,-4.1 -2.6,-7 1.2,-2.2 3.1,-3.5 4.9,-4.9 1.4,1.9 1.7,3.8 2.4,5.7 2.1,-3.2 4.3,-6 6.5,-8.3 -2,-1.2 -4.2,-2.2 -4.9,-4.7 1,-2.7 2.6,-4.8 4.9,-6.3 2.3,1.6 2.5,3.6 3.4,5.5 2.7,-2.2 3.6,-4.4 5.3,-6.5 -1.7,-2.1 -3.4,-3.3 -5,-4.3 1.6,-5.1 3.2,-4.4 4.8,-5.7 18,14.6 34.7,26.4 54.9,36.5 0.7,3.2 1.3,6.6 -4.1,7.4 -13.4,-9.6 -24.4,-15.9 -38.4,-26.6 -1.4,4 -2.5,8.4 -4.2,12.8 11.8,13.7 24.4,26.1 38.2,38.3 -1.1,4.3 -4.1,6 -8.3,6 -10.3,-13.6 -22.2,-26.6 -32,-37.2 -2.5,6.4 -5.8,11.8 -9,17.4 6.3,13.2 11.4,26.7 16.7,40 -1.1,3.8 -3.5,4.7 -6.7,4 -4.2,-12.6 -8.5,-25.2 -14.5,-37.9 -8.5,11.5 -17.5,22.2 -26.7,32.7 l -7.7,20 -9.2,-22 c -10.3,-9.3 -18.4,-20.1 -25.2,-32.2 -4,12.3 -9,24.4 -13.9,36.4 -3.3,1.6 -5.3,0.7 -6.7,-1.2 5.1,-13.1 11,-28.4 15.5,-40.9 -3.8,-5.7 -6,-11.2 -8.4,-17 C 40.1,126 29.2,136.2 17.3,149.7 13.6,149 9.9,148.4 8.7,144.6 23.4,133.2 35.3,119.4 47,105.5 L 43.7,92 C 31.1,103.4 20.6,110.2 5.2,119.4 2.2,117.3 0.1,114.8 1,111 Z m 87.1,-22.4 -0.4,15.6 c 2.6,2.6 3.6,5 4.9,7.5 0.3,-2.7 -0.1,-5.9 0.9,-8.1 -0.4,-0.9 -0.8,-1.4 -1.2,-3.4 0.2,-1.4 1.3,-2.2 2.2,-3.1 -2.2,-3.4 -4.2,-5.8 -6.4,-8.5 z m -6,-9.5 c 2,0.3 4,1.6 6.2,-0.4 0.9,-1.6 0.6,-3.7 0.4,-5.8 -1,-2.9 -2.1,-6.1 -3.9,-9.1 -1.7,-3 -3.1,-5.9 -6.7,-9.1 -2.4,-0.5 -4.9,-0.4 -7.3,0.7 -2.6,1.9 -5.1,4 -6.8,7 l -1.1,6.3 c 2.8,2.8 4.7,5.6 9.4,8.4 3.2,0.5 6.1,-1 9.8,2 z m 39.8,-2 c 4.7,-2.8 6.5,-5.6 9.4,-8.4 l -1.1,-6.3 c -1.7,-3.1 -4.1,-5.1 -6.8,-7 -2.4,-1 -4.9,-1.1 -7.3,-0.7 -3.6,3.1 -5,6.1 -6.7,9.1 -1.8,3.1 -2.9,6.2 -3.9,9.1 -0.3,2.1 -0.5,4.2 0.4,5.8 2.2,2 4.2,0.8 6.2,0.4 3.7,-3 6.6,-1.5 9.8,-2 z m -22.4,20 c 0.9,0.9 2,1.6 2.2,3.1 -0.4,2 -0.8,2.5 -1.2,3.4 1,2.2 0.6,5.4 0.9,8.1 1.4,-2.5 2.3,-4.9 4.9,-7.5 l -0.4,-15.6 c -2.2,2.7 -4.3,5.1 -6.5,8.4 z M 98,155.4 C 90,133.1 82.6,110.8 77.7,88.2 73.3,84.8 70.1,84.5 66.7,83.6 64,76.4 56.9,69.8 49.6,63.3 48,59.7 49,56 49.6,52.4 c 1.6,4.9 4.5,7.5 7.8,9.4 6.3,-1.6 6.2,-4.9 7.8,-7.8 -1.8,-8.9 -3,-16.2 -2.4,-18.1 1.9,-7.2 7.4,-12.2 11.7,-17.9 l -3.9,-9.4 7.8,6.3 C 84.9,10.1 91.5,8.1 98,7.1 c 8.5,0.4 14.3,3.7 19.5,7.8 l 7.8,-6.2 -3.9,9.4 c 6.3,5.3 10.6,11.7 11.7,18 0.8,6 -1.3,12 -2.3,18 -0.7,0 5.8,7.3 7.8,7.8 2.4,0.6 8.4,-7.8 7.8,-9.4 0.5,3.6 1.4,7.1 0,10.9 -5.8,6.2 -11.7,9 -17.2,20.3 -3.6,1.1 -7.3,1.4 -10.9,4.7 -5.1,22.2 -12.6,44.6 -20.3,67.1 z" />
</svg>
