<?xml version="1.0" encoding="UTF-8" standalone="no"?>
<svg version="1.1" width="200" height="200" viewBox="0 0 200 200"
   xmlns="http://www.w3.org/2000/svg"
   xmlns:svg="http://www.w3.org/2000/svg">
   <path style="fill:#969900;stroke:#ecebdf;stroke-width:2" d="m 5.7,129.1 c 4.1,0.5 6.2,-1.6 6.6,-4.5 M 25.6,60.0 c 5.4,-1.5 8.0,-4.0 9.3,-7.2 m 0.9,-6.8 c 3.8,-0.0 6.9,-0.9 7.6,-4.8 m 14.3,7.7 c 2.1,2.2 9.0,-0.1 9.2,-4.0 m -26.4,47.8 0.1,-11.2 6.6,-7.7 2.8,-4.9 -1.6,-4.6 -15.1,-13.5 M 48.5,100.0 50.4,89.1 61.5,82.4 66.9,74.9 66.8,66.4 56.8,48.5 M 146.2,172.7 c 0,0 -21.4,3.0 -31.8,1.1 -9.2,-1.6 -18.5,-4.9 -26.1,-10.5 -7.3,-5.4 -12.7,-13.4 -17.2,-21.3 -3.2,-5.5 -4.9,-11.8 -6.7,-17.9 -2.3,-7.6 -5.5,-15.3 -5.4,-23.2 0.0,-2.6 1.4,-4.4 3.2,-6.2 2.6,-2.7 6.6,-1.9 9.6,-4.2 3.4,-2.5 5.7,-6.7 6.7,-10.9 0.9,-3.6 0.8,-7.8 -0.9,-11.2 -0.9,-1.9 -3.0,-4.9 -3.0,-4.9 0,0 1.5,-9.9 -0.7,-14.0 -1.4,-2.5 -6.9,-4.9 -6.9,-4.9 -1.7,-3.2 -3.7,-5.7 -6.4,-8.4 -3.7,-2.6 -7.5,-3.2 -11.3,-2.9 3.4,2.4 7.1,4.8 7.7,7.6 0.6,2.7 0.5,5.1 0.1,7.8 -2.1,-1.1 -4.1,-2.1 -6.8,-3.1 0.4,-2.2 0.3,-4.2 -1.1,-5.2 -1.6,-1.1 -5.7,0.8 -5.7,0.8 0,0 -5.1,-6.6 -8.8,-7.3 -5.1,-1.1 -15.9,5.2 -15.9,5.2 0,0 10.0,-1.6 13.4,0.5 2.1,1.3 3.6,6.4 3.6,6.4 -1.9,0.7 -1.7,2.5 -2.3,5.1 0,0 -8.7,-3.5 -13.1,-2.7 -3.8,0.7 -7.5,7.0 -7.5,7.0 0,0 8.6,-1.9 11.2,0.8 2.3,2.4 2.0,7.0 0.6,10.0 -1.7,3.7 -7.0,4.3 -9.5,7.4 -2.5,3.1 -4.4,6.8 -5.1,10.7 -1.0,5.5 -0.2,11.5 1.6,16.8 3.1,9.4 15.3,25.5 15.3,25.5 l -13.8,-1.2 c -3.8,-2.7 -4.0,-5.7 -4.3,-8.8 l -0.7,-4.9 c 0,0 -1.9,4.6 -2.2,7.0 -0.7,5.3 -0.6,10.9 0.6,16.1 0.9,3.9 2.3,8.0 5.0,10.9 3.6,3.7 13.7,6.9 13.7,6.9 -2.7,2.5 -6.5,5.3 -6.4,9.1 6.0,-4.6 11.3,-2.4 16.0,5.3 -2.0,1.8 -4.6,1.6 -7.3,0.7 0,0 18.3,15.4 29.1,20.3 9.0,4.0 19.0,5.4 28.8,6.9 8.9,1.3 18.1,3.5 26.9,1.7 6.4,-1.3 12.0,-5.3 17.3,-9.0 6.1,-4.2 16.4,-14.8 16.4,-14.8 z m -40.7,-54.9 c 0,0 -8.6,13.0 -9.5,20.5 -0.7,5.5 0.5,11.5 3.3,16.3 2.7,4.7 7.1,8.3 12.3,10.8 5.2,2.5 11.9,3.5 18.0,3.1 5.6,-0.3 11.2,-1.9 16.1,-4.6 3.6,-2.0 9.1,-8.4 9.1,-8.4 0,0 -14.0,2.0 -20.9,1.0 -5.4,-0.7 -10.9,-2.1 -15.4,-5.1 -3.9,-2.6 -7.1,-6.4 -9.1,-10.6 -3.3,-7.0 -3.9,-22.9 -3.9,-22.9 z m 4.5,0.5 c 2.1,9.8 4.1,22.7 11.9,28.6 7.8,5.9 18.3,2.4 27.8,3.4 l -8.8,-7.9 c 0,0 16.5,-10.0 16.5,-9.5 0,0.5 -16.0,0.3 -16.0,0.3 l 6.3,-15.4 -16.9,11.5 -2.8,-18.6 -5.8,17.8 z M 120.2,87.2 109.9,76.7 m 17.0,7.8 -10.4,-13.0 m 18.4,11.8 -9.8,-13.5 m 24.6,13.5 -19.0,-18.5 m 25.1,11.3 C 147.6,69.2 140.2,61.1 130.9,56.2 m 27.7,10.4 C 145.0,51.1 128.8,42.0 111.5,35.4 m 47.9,16.8 C 141.9,39.5 124.8,26.5 95.1,22.0 M 168.1,45.3 C 144.7,21.4 113.6,14.0 81.1,13.1 M 87.7,126.9 c 0,0 16.0,-21.9 28.0,-26.9 6.9,-2.9 15.2,-1.9 22.5,-0.4 8.1,1.7 17.0,4.5 22.6,10.6 5.0,5.4 6.7,13.4 7.8,20.8 1.1,7.6 0.4,15.6 -1.4,23.1 -1.1,4.8 -5.8,13.5 -5.8,13.5 0,0 16.9,-11.3 22.3,-19.6 5.5,-8.6 7.5,-19.2 9.0,-29.3 2.1,-13.5 2.5,-27.5 0.3,-41.0 C 191.3,67.7 188.1,57.6 182.9,48.9 177.7,40.1 170.3,32.6 162.4,26.2 155.0,20.2 146.4,15.4 137.5,11.9 126.7,7.6 115.1,5.3 103.5,3.9 88.7,2.0 58.7,3.1 58.7,3.1 63.3,7.2 68.5,10.8 74.5,13.5 l 6.5,-0.4 c 2.4,3.9 5.6,6.3 9.0,8.3 l 5.1,0.6 c 1.1,4.3 3.0,8.4 7.8,11.5 2.5,0.8 4.4,1.8 8.8,2.1 -1.7,3.4 -2.5,6.6 0.3,9.5 5.4,4.3 12.1,7.7 19.0,11.0 -1.5,2.6 -2.2,5.4 -0.3,8.8 -3.0,1.0 -6.7,1.6 -5.6,4.9 -2.8,-0.1 -5.7,-1.7 -8.4,1.9 -3.1,0.4 -6.5,0.5 -6.9,5.0 0,0 -11.0,12.3 -14.5,19.6 -4.5,9.5 -7.6,30.6 -7.6,30.6 z" />
</svg>
