<?xml version="1.0" encoding="UTF-8" standalone="no"?>
<svg version="1.1" width="200" height="200" viewBox="0 0 200 200"
   xmlns="http://www.w3.org/2000/svg"
   xmlns:svg="http://www.w3.org/2000/svg">
   <path style="fill:#821733;stroke:#f5d6d6;stroke-width:2" d="m 93.6,102.6 5.1,-4.9 5.1,4.5 -4.6,4.9 z M 99.7,79.8 c 0,0 -8.4,5.6 -10.8,9.8 -2.0,3.6 -2.4,8.1 -2.4,12.3 -0.0,3.4 0.5,6.9 1.9,10.0 2.6,5.7 11.7,14.7 11.7,14.7 0,0 6.2,-5.0 8.0,-8.5 2.1,-4.0 2.5,-8.7 3.0,-13.1 0.5,-4.6 -1.5,-14.0 -1.5,-14.0 -1.3,-5.4 -5.5,-8.4 -9.9,-11.2 z m 38.8,52.0 c 9.5,1.8 16.5,5.7 19.9,12.0 m -27.8,-23.4 c 7.6,2.0 14.7,2.2 21.6,1.3 M 92.5,140.2 c 2.7,7.5 3.9,15.3 4.9,23.0 m -27.0,-35.2 c -6.2,3.6 -12.6,6.6 -18.4,11.9 M 27.6,99.7 c 0,0 -9.6,6.0 -10.8,10.9 -0.8,3.5 1.2,7.4 3.3,10.2 2.4,3.1 6.1,5.9 10.0,6.4 4.8,0.7 10.1,-1.3 14.0,-4.2 3.0,-2.2 6.2,-9.1 6.2,-9.1 0,0 -9.2,-6.2 -11.8,-10.9 -2.2,-4.0 -2.6,-8.8 -2.6,-13.4 0.1,-4.5 2.8,-13.1 2.8,-13.1 0,0 3.6,10.4 7.1,14.5 2.1,2.5 4.7,5.6 8.0,5.9 3.4,0.4 8.2,-1.0 9.4,-4.2 C 65.4,86.9 58.1,81.4 55.5,75.9 53.0,70.6 49.7,65.7 47.8,60.2 46.4,56.1 45.0,51.9 45.1,47.6 45.2,41.6 46.4,35.3 49.4,30.2 55.2,20.3 74.3,6.5 74.3,6.5 c 0,0 -9.9,23.9 -10.0,36.6 -0.0,5.5 1.7,11.0 4.1,16.0 2.4,5.0 10.2,13.3 10.2,13.3 -0.9,-7.6 -1.0,-14.7 1.8,-19.6 1.0,5.9 2.0,11.7 4.8,16.9 1.5,-7.8 3.8,-16.1 7.5,-22.9 0.2,7.1 0.5,14.2 1.9,21.2 l 6.3,-3.0 c 2.9,-4.7 0.7,-10.1 0.4,-15.3 4.7,6.1 8.2,12.1 10.0,18.0 4.3,-4.0 4.4,-10.1 5.9,-15.5 2.3,7.6 6.3,15.0 4.4,22.9 2.0,0.4 2.8,2.3 3.8,4.0 1.6,0.5 10.0,-12.5 10.2,-20.2 0.1,-7.1 -1.7,-14.4 -5.0,-20.6 -2.5,-4.7 -6.2,-9.4 -10.9,-11.8 -4.7,-2.4 -15.6,-1.9 -15.6,-1.9 0,0 14.9,-6.7 22.5,-5.7 8.2,1.1 16.3,5.8 21.6,12.1 4.5,5.3 6.5,12.7 7.1,19.7 0.7,7.7 -1.6,15.4 -3.9,22.8 -1.9,6.4 -8.2,18.3 -8.2,18.3 -2.1,4.6 -4.9,9.6 -4.1,14.5 0.4,2.9 2.0,6.5 4.8,7.5 3.8,1.3 8.2,-1.6 11.2,-4.2 2.1,-1.9 3.7,-7.6 3.7,-7.6 0,0 -0.2,8.9 -1.8,12.9 -1.1,2.7 -5.0,7.0 -5.0,7.0 0,0 9.8,-1.9 13.5,-4.9 4.0,-3.2 6.3,-8.2 8.5,-12.9 2.9,-6.1 6.2,-19.2 6.2,-19.2 2.7,7.0 4.9,10.9 1.9,22.8 -3.0,11.9 -12.9,26.6 -23.9,36.2 0,0 5.1,16.2 11.6,20.6 5.8,4.0 21.0,3.0 21.0,3.0 0,0 -7.7,8.5 -13.0,9.3 -6.7,0.9 -13.4,-3.2 -19.2,-6.8 -5.8,-3.7 -8.6,-11.1 -14.5,-14.5 -4.4,-2.6 -9.7,-4.9 -14.8,-4.2 -3.7,0.4 -8.1,2.2 -9.7,5.5 -1.4,3.0 -0.1,7.1 1.7,9.9 4.0,6.2 12.6,7.6 18.3,12.2 5.8,4.7 16.0,15.7 16.0,15.7 0,0 -16.8,-5.1 -25.4,-7.1 -6.7,-1.5 -14.6,0.1 -20.2,-3.7 -6.5,-4.5 -12.5,-20.2 -12.5,-20.2 0,0 -9.5,7.4 -13.4,11.8 -2.0,2.3 -5.3,4.5 -5.0,7.5 0.3,3.8 7.7,8.4 7.7,8.4 0,0 -9.1,0.8 -13.0,-1.2 -3.2,-1.6 -6.7,-4.4 -7.3,-8.0 -0.7,-3.7 2.1,-7.3 4.2,-10.3 3.1,-4.3 9.7,-5.6 12.0,-10.4 1.4,-3.0 2.3,-7.4 0.3,-10.0 -1.9,-2.5 -6.1,-3.2 -9.1,-2.4 -3.7,0.9 -6.0,4.7 -8.4,7.6 -3.2,3.9 -4.6,9.1 -7.7,13.1 -3.2,4.1 -6.9,8.1 -11.3,10.9 -7.5,4.9 -25.0,10.3 -25.0,10.3 0,0 13.1,-9.3 17.9,-15.6 3.8,-4.9 7.2,-10.6 8.4,-16.7 0.5,-2.8 -1.2,-5.7 -0.6,-8.5 0.7,-3.6 5.2,-9.9 5.2,-9.9 0,0 -14.4,2.1 -21.4,0.8 -5.4,-1.0 -10.9,-2.9 -15.1,-6.4 -3.3,-2.9 -5.9,-6.9 -7.0,-11.2 -1.4,-5.4 -1.3,-11.5 0.9,-16.6 1.5,-3.3 4.2,-6.5 7.6,-7.7 3.2,-1.2 10.3,1.0 10.3,1.0 z" />
</svg>
