<svg version="1.1" id="svg1" width="200" height="200" viewBox="0 0 200 200"
   xmlns="http://www.w3.org/2000/svg"
   xmlns:svg="http://www.w3.org/2000/svg">
   <path style="fill:#998800;stroke:#f5f3d5;stroke-width:2" d="m 97.9,153.3 c -1.5,1.5 -2.6,2.9 -6.0,5.1 3.9,3.0 8.6,2.7 12.5,2.3 -2.3,-2.1 -4.4,-4.6 -6.5,-7.4 z M 87.2,138.0 c -0.1,5.1 -0.6,10.8 -1.7,15.7 3.2,-1.4 5.3,-4.5 7.4,-6.8 -2.4,-2.9 -4.0,-5.9 -5.7,-8.9 z M 144.4,60.7 c 0,0 -6.0,10.9 -10.3,15.8 -4.3,4.9 -15.7,13.3 -15.7,13.3 0,0 2.8,1.2 2.8,2.5 0.1,3.2 -6.9,6.4 -6.8,6.9 0.1,0.5 4.8,4.7 6.6,7.5 1.4,2.2 3.0,4.5 3.1,7.1 0.1,2.2 -0.8,4.6 -2.1,6.4 -2.0,2.8 -5.1,4.6 -8.1,6.4 -2.7,1.6 -8.7,3.8 -8.7,3.8 0,0 7.1,13.2 13.0,17.2 4.2,2.9 9.7,3.9 14.8,4.2 5.4,0.2 15.8,-3.1 15.8,-3.1 l 7.1,3.1 c 4.8,2.1 9.6,12.2 9.6,12.2 0,0 -8.4,-1.6 -12.0,-3.8 -2.1,-1.3 -2.7,-5.0 -5.1,-5.3 -4.0,-0.6 -6.5,5.2 -10.4,6.0 -3.6,0.8 -7.5,0.2 -11.0,-0.8 -5.8,-1.7 -15.8,-8.7 -15.8,-8.7 0,0 4.4,7.4 7.6,10.3 3.8,3.5 9.2,4.9 13.3,8.1 3.2,2.5 6.4,5.2 8.5,8.5 1.9,3.0 3.8,10.1 3.8,10.1 0,0 -8.2,-4.9 -12.2,-7.5 -2.6,-1.6 -4.9,-3.9 -7.8,-5.0 -2.9,-1.1 -6.4,-0.3 -9.3,-1.5 -3.2,-1.4 -7.4,-6.0 -7.4,-6.0 -5.2,2.6 -10.2,1.4 -15.2,-0.7 0,0 -1.2,6.9 0.2,10.0 1.6,3.4 5.3,5.5 8.4,7.5 2.5,1.6 5.8,1.8 8.3,3.6 2.8,2.0 6.9,7.5 6.9,7.5 0,0 -7.5,-3.2 -11.4,-4.2 -3.1,-0.7 -6.4,0.1 -9.4,-1.1 -3.4,-1.3 -6.5,-3.6 -8.9,-6.3 -2.6,-2.9 -4.8,-6.4 -5.8,-10.2 -0.9,-3.4 0,-10.7 0,-10.7 0,0 -5.8,4.4 -9.6,5.5 -3.2,0.9 -6.4,0.4 -9.8,0.8 -3.6,0.4 -6.7,2.9 -10.3,3.3 -4.4,0.5 -13.2,-1.3 -13.2,-1.3 0,0 9.0,-2.3 12.7,-5.0 5.7,-4.1 12.1,-5.0 18.4,-6.2 2.2,-0.4 6.3,-1.8 6.3,-2.3 0.0,-0.4 -5.8,-4.7 -9.4,-5.6 -2.6,-0.7 -5.6,-0.4 -8.2,0.4 -1.8,0.5 -5.0,2.8 -5.0,2.8 0,0 3.3,-5.0 5.9,-6.2 2.6,-1.1 5.7,-0.7 8.4,-0.2 3.4,0.6 9.7,3.7 9.7,3.7 0,0 2.8,-11.9 2.8,-17.9 0.0,-4.0 -2.1,-7.6 -1.6,-12.0 0.4,-3.9 3.7,-7.0 6.3,-10.0 3.2,-3.7 6.6,-5.2 8.4,-9.7 1.1,-2.9 0.2,-6.6 -1.3,-9.4 -1.4,-2.5 -4.0,-4.3 -6.6,-5.5 -4.1,-1.8 -8.9,-3.2 -13.2,-2.0 -3.3,0.9 -8.1,6.5 -8.1,6.5 -0.8,-3.2 -0.8,-6.5 0.8,-9.7 l 7.5,-3.6 -7.0,-9.1 c -0.1,-2.4 0.0,-4.6 1.3,-5.9 0,0 7.5,9.1 12.2,12.5 3.3,2.3 7.2,4.0 11.1,5.1 4.6,1.3 9.5,1.7 14.2,1.5 4.3,-0.2 8.6,-0.8 12.6,-2.4 4.8,-2.0 9.2,-5.1 12.9,-8.7 3.0,-2.9 7.4,-10.1 7.4,-10.1 2.5,-2.2 4.9,-2.6 7.4,-2.5 z M 106.6,110.1 c -1.2,3.0 -3.5,4.8 -5.3,7.3 -0.6,2.2 -0.1,4.3 0.7,6.4 3.1,-1.3 6.9,-1.9 9.2,-5.1 -1.1,-3.6 -2.9,-6.1 -4.6,-8.6 z m 8.2,4.9 c 1.1,-1.1 2.2,-2.2 2.8,-3.6 l -5.2,-8.3 c -0.9,1.3 -1.3,2.7 -3.0,4.0 2.4,2.5 3.9,5.2 5.3,8.0 z m -17.0,-25.7 3.7,7.9 10.0,-9.3 z M 131.1,38.4 A 29.9,29.9 0 0 1 102.4,69.4 29.9,29.9 0 0 1 71.4,40.7 29.9,29.9 0 0 1 100.1,9.7 29.9,29.9 0 0 1 131.1,38.4 m 9.5,-0.5 A 38.8,38.8 0 0 0 100.3,0.6 38.8,38.8 0 0 0 63.0,40.9 38.8,38.8 0 0 0 103.3,78.2 38.8,38.8 0 0 0 140.6,37.9" />
</svg>
