<svg version="1.1" width="200" height="200" viewBox="0 0 200 200"
   xmlns="http://www.w3.org/2000/svg"
   xmlns:svg="http://www.w3.org/2000/svg">
   <path style="fill:#822617;stroke:#ffe0cc;stroke-width:2" d="m 124.1,114.0 3.8,-4.7 m -18.1,37.3 c 4.2,-0.2 8.2,-1.3 12.1,-2.9 m -41.0,2.9 c -1.6,0.3 -2.9,0.8 -5.7,0.3 m 3.7,39.0 c -3.1,-9.4 -5.3,-19.6 -3.3,-28.7 -1.2,-1.9 -1.4,-3.2 -1.6,-4.5 -0.2,-3.1 0.6,-4.1 1.2,-5.8 -3.1,-3.4 -6.9,-6.6 -6.4,-11.2 -0.8,-11.8 0.6,-23.5 1.2,-35.2 0,0 -9.7,-8.1 -11.8,-13.8 -1.1,-3.0 -0.7,-9.5 -0.7,-9.5 0,0 -1.1,-5.7 -0.9,-8.6 0.2,-3.3 2.6,-9.2 2.6,-9.2 3.3,-0.9 4.2,0.7 5.9,2.5 0,0 -0.6,9.0 0.1,13.3 0.4,2.4 1.3,4.8 2.5,7.0 1.6,2.9 6.8,7.4 6.8,7.4 2.5,-1.1 4.3,-2.2 5.3,-3.2 0,0 -2.9,-9.6 -3.6,-14.5 -0.7,-5.3 -0.8,-10.6 0.4,-15.6 1.2,-4.7 5.9,-13.1 5.9,-13.1 2.2,0.2 4.3,0.8 5.0,3.5 -2.2,5.1 -1.7,10.1 -2.0,15.2 -0.4,4.7 0.2,9.2 1.9,13.5 0,0 2.9,6.7 5.9,7.2 2.1,0.4 4.3,-1.5 5.5,-3.2 3.3,-4.4 2.9,-10.6 3.6,-16.1 0.6,-4.7 1.1,-13.6 1.1,-13.6 0.7,-3.4 2.3,-6.1 3.9,-8.9 2.2,-2.0 4.0,-2.1 5.8,-2.0 l -0.7,12.6 c -0.4,9.4 -1.4,17.6 -2.2,26.2 0.4,3.5 2.6,3.2 4.5,3.5 0,0 7.4,-9.2 9.3,-14.6 1.5,-4.4 2.3,-13.8 2.3,-13.8 l 0.1,-10.8 c 1.4,-1.8 3.6,-3.2 5.4,-1.3 1.7,4.8 3.8,9.4 4.7,14.5 0,0 -0.7,12.0 -2.8,17.5 -1.7,4.6 -6.4,7.7 -7.8,12.3 -1.9,6.4 -2.1,13.5 -0.4,20.0 0.4,1.6 2.5,4.2 2.5,4.2 3.4,-2.9 6.9,-5.7 9.2,-9.7 0,0 1.5,-6.0 3.4,-8.3 2.9,-3.5 7.1,-8.4 11.6,-7.4 1.6,0.4 1.2,4.2 1.2,4.2 -0.1,-0.0 -2.1,10.9 -4.0,15.9 -1.2,3.2 -5.8,3.9 -7.7,6.7 -4.2,6.1 -3.6,14.5 -7.5,20.7 -3.5,5.6 -10.2,8.9 -13.9,14.3 -2.6,3.7 -5.0,7.8 -5.7,12.3 -1.2,8.2 3.5,24.6 3.5,24.6 -6.0,-4.6 -9.1,-10.6 -10.1,-16.0 -1.9,6.8 -3.3,12.2 -4.2,19.0 -0.7,-7.3 -1.3,-11.6 -2.7,-17.9 l -4.6,11.2 c -2.2,5.5 -5.0,11.4 -6.2,18.4 0,0 -0.8,-10.2 -0.7,-15.4 0.0,-2.4 0.4,-4.8 -0.1,-7.1 -0.8,-3.8 -4.7,-10.7 -4.7,-10.7 -3.4,6.6 -4.7,14.0 -5.8,21.6 z" />
   <path style="fill:#cc0000;stroke:#ffcccc;stroke-width:2" d="m 100.0,144.7 c 0,0 -4.2,-6.7 -4.8,-10.6 -0.7,-3.9 1.6,-7.9 1.0,-11.8 -0.5,-3.7 -1.8,-7.5 -3.9,-10.6 -1.5,-2.2 -4.3,-3.3 -6.0,-5.4 -1.2,-1.4 -2.3,-3.0 -2.9,-4.8 -0.7,-2.0 -0.9,-6.3 -0.9,-6.3 0,0 2.3,3.4 4.1,4.4 1.0,0.5 2.4,1.1 3.4,0.6 1.1,-0.6 1.4,-3.6 1.4,-3.6 0,0 -1.9,-2.5 -2.8,-3.7 -1.5,-2.1 -3.5,-4.1 -4.4,-6.6 -1.2,-3.2 -1.0,-10.2 -1.0,-10.2 0,0 1.4,3.7 2.8,5.0 1.0,0.9 3.7,1.7 3.7,1.7 0,0 1.0,-3.5 0.8,-5.3 -0.3,-2.4 -2.8,-6.8 -2.8,-6.8 l 3.9,1.9 c 0,0 0.7,-3.2 0.2,-4.7 -0.4,-1.0 -1.6,-1.4 -2.2,-2.3 C 87.8,62.8 86.8,59.6 86.0,56.3 85.0,52.4 84.6,44.3 84.6,44.3 l 3.4,3.2 c 0,0 2.4,-1.8 3.0,-3.2 0.8,-1.9 0.7,-4.1 0.5,-6.1 -0.1,-1.4 -0.4,-2.8 -1.0,-4.1 -0.6,-1.4 -2.6,-3.8 -2.6,-3.8 0,0 3.8,-2.9 5.4,-4.7 1.7,-1.9 3.4,-3.8 4.4,-6.1 1.1,-2.6 -0.1,-5.9 1.3,-8.4 1.6,-2.9 7.4,-6.7 7.4,-6.7 0,0 -3.9,7.5 -2.3,10.8 0.9,1.8 5.4,2.8 5.4,2.8 0,0 -4.0,3.2 -4.3,5.5 -0.2,1.8 0.8,4.0 2.4,5.0 1.5,1.0 3.7,0.9 5.3,0.3 2.2,-0.9 4.7,-5.2 4.7,-5.2 0,0 0.4,5.5 -0.7,7.8 -1.4,3.0 -5.2,4.1 -7.2,6.8 -1.9,2.6 -3.1,5.6 -4.1,8.6 -1.0,2.9 -2.0,6.0 -1.9,9.1 0.1,2.3 0.2,5.1 1.9,6.6 1.0,0.9 2.7,1.1 4.0,0.7 1.2,-0.4 2.1,-1.6 2.5,-2.7 0.4,-1.1 0.0,-2.4 -0.2,-3.6 -0.3,-1.9 -1.6,-5.4 -1.6,-5.4 0,0 4.2,3.0 5.3,5.3 1.1,2.3 0.9,5.0 0.8,7.6 -0.1,2.4 -0.1,4.8 -1.1,7.0 -1.1,2.3 -3.5,3.7 -5.0,5.6 -1.7,2.1 -3.6,4.1 -4.6,6.6 -0.8,2.1 -1.0,4.5 -1.0,6.8 0.0,2.2 -0.2,4.6 1.0,6.4 0.6,0.9 1.6,1.8 2.7,1.7 1.2,-0.1 1.9,-1.4 2.6,-2.4 0.7,-1.0 1.5,-3.3 1.5,-3.3 0,0 0.9,9.3 -0.2,13.8 -0.8,3.2 -3.0,5.8 -4.6,8.7 -1.7,3.2 -3.9,6.3 -5.3,9.7 -1.1,2.5 -2.1,5.1 -2.6,7.8 -0.6,4.0 0.2,12.1 0.2,12.1 z" />
</svg>
