<?xml version="1.0" encoding="UTF-8" standalone="no"?>
<svg version="1.1" id="svg1" width="200" height="200" viewBox="0 0 200 200"
   xmlns="http://www.w3.org/2000/svg"
   xmlns:svg="http://www.w3.org/2000/svg">
   <path style="fill:#494d50;stroke:#e0e6eb;stroke-width:2" d="m 100.6,168.5 c 0,0 -6.8,-8.3 -11.6,-9.7 -2.6,-0.8 -6.2,2.9 -8.0,1.0 -1.9,-2.1 0.0,-6.0 1.7,-8.2 3.1,-4.1 7.7,-2.5 10.2,-7.0 3.4,-6.5 2.5,-14.8 1.2,-22.0 -1.0,-5.9 -6.5,-10.5 -7.0,-16.5 -0.6,-6.9 2.1,-21.4 2.1,-21.4 0,0 -7.8,7.0 -9.3,11.8 -1.6,4.9 -0.1,10.4 0.5,15.6 1.0,8.4 8.4,16.9 5.3,24.7 -0.8,2.1 -3.3,4.2 -5.6,3.9 -2.1,-0.3 -2.6,-0.8 -4.0,-4.8 -1.4,-4.1 1.5,-13.0 0.8,-19.4 -0.5,-4.3 -0.9,-9.7 -3.3,-12.6 -2.5,-2.8 -4.8,-4.8 -8.9,-3.7 -3.4,1.0 -7.0,5.2 -9.7,7.5 -2.3,2.1 -5.2,4.6 -6.8,4.5 -2.8,-0.2 -11.7,1.8 -13.3,-2.5 -0.9,-2.5 3.2,-3.1 3.5,-6.8 0.7,-8.5 -8.8,-15.1 -11.0,-23.3 -1.2,-4.3 -2.3,-8.7 0.7,-13.4 2.3,-3.6 8.9,-5.6 10.7,-9.5 0.9,-2.0 0.4,-5.4 1.3,-7.4 2.0,-4.3 6.2,-7.9 11.7,-8.2 3.2,-0.2 4.8,4.5 8.0,4.2 5.4,-0.7 10.0,-7.9 13.3,-12.2 3.7,-4.7 7.0,-9.1 9.0,-15.4 1.4,-4.5 0.0,-13.2 0.0,-13.2 0,0 -8.5,20.3 -18.0,23.8 -5.5,2.0 -8.5,-6.0 -14.3,-5.4 -5.6,0.6 -10.9,3.7 -15.0,7.5 -3.0,2.8 -3.4,7.8 -6.5,10.4 -2.2,1.8 -5.2,4.3 -8.3,5.6 -4.1,1.8 -10.3,0.9 -13.1,2.9 -3.7,2.7 -3.2,5.1 -4.5,10.0 -2.5,10.1 6.7,18.8 7.7,28.6 0.9,8.9 -2.3,19.0 0.8,27.4 2.5,7.0 6.7,12.8 12.8,15.7 2.9,1.4 7.2,-0.7 10.8,-0.3 3.1,0.3 5.6,1.4 9.1,2.0 0,0 0.0,5.7e-4 0.0,6.5e-4 5.4,0.1 12.3,-6.4 16.0,-6.5e-4 1.8,3.1 5.1,5.9 4.8,9.4 -0.4,6.3 -9.6,9.3 -10.7,15.5 -0.9,5.2 1.0,10.9 3.9,15.3 2.4,3.6 6.4,6.2 10.4,7.7 5.2,1.9 9.6,-1.4 14.6,1.2 6.8,3.5 18.2,17.5 18.2,17.5 m 0.1,-31.0 c 0,0 6.5,-8.3 11.4,-9.7 2.6,-0.8 6.2,2.9 8.0,1.0 1.9,-2.1 -0.0,-6.0 -1.7,-8.2 -3.1,-4.1 -7.7,-2.5 -10.2,-7.0 -3.4,-6.5 -2.5,-14.8 -1.2,-22.0 1.0,-5.9 6.5,-10.5 7.0,-16.5 0.6,-6.9 -2.1,-21.4 -2.1,-21.4 0,0 7.8,7.0 9.3,11.8 1.6,4.9 0.1,10.4 -0.5,15.6 -1.0,8.4 -8.4,16.9 -5.3,24.7 0.8,2.1 3.3,4.2 5.6,3.9 2.1,-0.3 2.6,-0.8 4.0,-4.8 1.4,-4.1 -1.5,-13.0 -0.8,-19.4 0.5,-4.3 0.9,-9.7 3.3,-12.6 2.5,-2.8 4.8,-4.8 8.9,-3.7 3.4,1.0 7.0,5.2 9.7,7.5 2.3,2.1 5.2,4.6 6.8,4.5 2.8,-0.2 11.7,1.8 13.3,-2.5 0.9,-2.5 -3.2,-3.1 -3.5,-6.8 -0.7,-8.5 8.8,-15.1 11.0,-23.3 1.2,-4.3 2.3,-8.7 -0.7,-13.4 -2.3,-3.6 -8.9,-5.6 -10.7,-9.5 -0.9,-2.0 -0.4,-5.4 -1.3,-7.4 -2.0,-4.3 -6.2,-7.9 -11.7,-8.2 -3.2,-0.2 -4.8,4.5 -8.0,4.2 -5.4,-0.7 -10.0,-7.9 -13.3,-12.2 -3.7,-4.7 -7.0,-9.1 -9.0,-15.4 -1.4,-4.5 -0.0,-13.2 -0.0,-13.2 0,0 8.5,20.3 18.0,23.8 5.5,2.0 8.5,-6.0 14.3,-5.4 5.6,0.6 10.9,3.7 15.0,7.5 3.0,2.8 3.4,7.8 6.5,10.4 2.2,1.8 5.2,4.3 8.3,5.6 4.1,1.8 10.3,0.9 13.1,2.9 3.7,2.7 3.2,5.1 4.5,10.0 2.5,10.1 -6.7,18.8 -7.7,28.6 -0.9,8.9 2.3,19.0 -0.8,27.4 -2.5,7.0 -6.7,12.8 -12.8,15.7 -2.9,1.4 -7.2,-0.7 -10.8,-0.3 -3.1,0.3 -5.6,1.4 -9.1,2.0 0,0 -0.0,5.7e-4 -0.0,6.5e-4 -5.4,0.1 -12.3,-6.4 -16.0,-6.5e-4 -1.8,3.1 -5.1,5.9 -4.8,9.4 0.4,6.3 9.6,9.3 10.7,15.5 0.9,5.2 -1.0,10.9 -3.9,15.3 -2.4,3.6 -6.4,6.2 -10.4,7.7 -5.2,1.9 -9.6,-1.4 -14.6,1.2 -6.8,3.5 -18.2,17.5 -18.2,17.5" />
</svg>
