<svg version="1.1" width="200" height="200" viewBox="0 0 200 200"
   xmlns="http://www.w3.org/2000/svg"
   xmlns:svg="http://www.w3.org/2000/svg">
   <path style="fill:#3a555f;stroke:#d7e7f3;stroke-width:2" d="m 80.2,142.4 -38.4,33.0 c 0,0 -2.8,-1.5 -4.4,-1.2 -1.3,0.2 -3.4,2.1 -3.4,2.1 0,0 -0.8,1.8 -0.9,2.8 -0.1,1.1 0.5,3.2 0.5,3.2 l -3.6,3.8 3.5,4.0 3.2,-2.4 c 0,0 2.1,1.4 3.3,1.6 1.1,0.1 2.2,-0.1 3.2,-0.6 1.2,-0.6 2.4,-1.6 2.9,-2.9 0.5,-1.2 -0.3,-3.7 -0.3,-3.7 L 80.2,155.1 Z M 61.8,77.3 54.1,87.2 69.6,98.8 77.0,89.6 Z M 24.0,188.2 c 0,0 -2.9,-12.9 -3.5,-19.5 -0.8,-8.1 -2.2,-16.4 -0.4,-24.3 2.3,-10.1 8.7,-18.9 13.9,-27.8 3.1,-5.2 10.3,-15.0 10.3,-15.0 l -5.4,-8.4 14.1,-1.4 13.7,11.1 -1.3,3.2 14.9,11.8 v 9.6 L 58.1,111.6 c 0,0 -4.3,5.9 -6.5,8.8 -3.5,4.8 -7.5,9.2 -10.4,14.3 -3.4,5.9 -5.7,12.4 -8.1,18.8 -2.7,7.3 -4.8,14.8 -6.7,22.3 -1.0,4.1 -2.4,12.3 -2.4,12.3 z m 36.7,-9.8 19.5,17.8 h 43.2 l 17.1,-17.8 H 112.8 V 64.0 h -8.4 l -0.1,-10.6 H 96.2 V 64.0 H 86.6 V 178.4 Z m 59.1,-36.0 38.4,33.0 c 0,0 2.8,-1.5 4.4,-1.2 1.3,0.2 3.4,2.1 3.4,2.1 0,0 0.8,1.8 0.9,2.8 0.1,1.1 -0.5,3.2 -0.5,3.2 l 3.6,3.8 -3.5,4.0 -3.2,-2.4 c 0,0 -2.1,1.4 -3.3,1.6 -1.1,0.1 -2.2,-0.1 -3.2,-0.6 -1.2,-0.6 -2.4,-1.6 -2.9,-2.9 -0.5,-1.2 0.3,-3.7 0.3,-3.7 l -34.4,-26.8 z m 18.4,-65.1 7.7,9.9 -15.5,11.6 -7.4,-9.2 z m 37.8,110.9 c 0,0 2.9,-12.9 3.5,-19.5 0.8,-8.1 2.2,-16.4 0.4,-24.3 -2.3,-10.1 -8.7,-18.9 -13.9,-27.8 C 162.9,111.3 155.7,101.5 155.7,101.5 l 5.4,-8.4 -14.1,-1.4 -13.7,11.1 1.3,3.2 -14.9,11.8 v 9.6 l 22.1,-15.9 c 0,0 4.3,5.9 6.5,8.8 3.5,4.8 7.5,9.2 10.4,14.3 3.4,5.9 5.7,12.4 8.1,18.8 2.7,7.3 4.8,14.8 6.7,22.3 1.0,4.1 2.4,12.3 2.4,12.3 z"/>
   <path style="fill:#3a555f;fill-opacity:0.5;stroke:#d7e7f3;stroke-width:2" d="m 96.7,56.8 c -1.9,-0.4 -3.8,-1.4 -5.2,-2.8 -2.2,-2.1 -4.0,-4.9 -4.4,-7.9 -0.7,-4.4 1.2,-8.8 2.8,-12.9 2.4,-6.4 6.1,-12.3 10.1,-17.8 2.7,-3.7 9.2,-10.0 9.2,-10.0 0,0 -2.4,8.3 -2.5,12.5 -0.1,2.7 0.2,5.4 1.1,7.9 0.8,2.2 2.9,3.8 3.7,6.0 0.8,2.0 1.4,4.3 1.1,6.5 -0.2,1.5 -2.1,2.6 -2.0,4.1 0.2,2.1 3.3,3.1 3.6,5.2 0.3,2.1 -0.7,4.3 -1.9,6.0 -0.8,1.2 -2.1,2.1 -3.5,2.6 -3.8,1.4 -8.3,1.5 -12.3,0.6 z" />
</svg>
