<svg version="1.1" width="200" height="200" viewBox="0 0 200 200"
   xmlns="http://www.w3.org/2000/svg"
   xmlns:svg="http://www.w3.org/2000/svg">
   <path style="fill:#1e7b50;stroke:#d0fbf6;stroke-width:2" d="m 111.1,2.3 c 7.2,18.4 13.2,36.7 12.0,54.4 -0.8,16.9 -8.1,29.0 -16.4,40.3 -0.4,13.5 7.0,18.6 23.2,14.1 l 7.6,-5.1 12.7,-8.8 c -1.5,-6.4 -0.7,-6.4 1.4,-8.1 2.7,-2.2 6.8,-0.4 10.4,0.2 -1.2,-5.3 -3.9,-10.1 -0.5,-12.3 5.9,-3.7 12.5,5.9 18.5,9.5 -1.1,-5.9 -2.4,-11.8 -9.3,-16.9 -0.2,-4.3 3.8,-4.8 6.9,-6.0 -1.9,-3.7 -5.4,-5.9 -8.8,-8.1 -0.1,-1.6 1.0,-3.2 3.9,-4.6 -1.9,-3.3 -6.0,-3.6 -9.5,-4.6 -1.3,-2.7 1.5,-3.4 3.9,-4.2 C 150.6,27.6 131.0,14.9 111.1,2.3 Z" />
   <path style="fill:#1e7b50;stroke:#d0fbf6;stroke-width:2" d="M 102.3,2.8 C 85.5,13.2 68.7,22.9 51.6,34.7 l 6.3,2.3 c -6.2,2.6 -12.4,5.4 -18.3,9.5 l 6.7,1.2 c -6.5,1.9 -12.0,5.4 -17.1,9.7 l 6.3,1.6 c -5.0,3.5 -9.2,7.8 -11.6,13.7 l 9.0,-3.0 c -6.1,8.9 -7.5,16.8 -7.4,24.3 3.9,-6.3 8.7,-12.6 13.1,-14.0 4.4,-1.4 7.2,0.4 8.4,3.8 1.2,3.4 -6.6,10.4 -3.2,8.8 3.4,-1.6 21.4,-0.0 14.6,7.1 10.7,2.6 13.8,7.2 -1.4,18.6 16.8,-0.5 30.3,4.8 35.2,24.8 14.0,-8.4 18.6,-5.1 25.2,0 5.3,4.0 7.0,12.9 5.1,19.2 -1.7,5.9 -7.6,11.3 -13.7,12.5 -7.0,1.4 -15.3,-1.9 -20.2,-7.2 -4.1,-4.5 -5.2,-11.7 -4.6,-17.8 0.4,-4.8 2.9,-9.5 6.1,-13.2 -4.9,-9.7 -7.9,-13.9 -17.3,-16.3 -10.8,5.8 -21.5,20.3 -21.8,33.8 -0.2,8.9 3.9,18.1 9.6,24.8 7.0,8.2 17.4,13.4 27.8,16.2 11.1,3.0 24.5,2.4 34.5,-0.2 9.6,-3.7 18.9,-11.0 24.8,-19.7 4.2,-6.2 6.7,-14.0 6.5,-21.5 -0.2,-9.3 -4.3,-18.4 -9.3,-26.2 -6.3,-9.8 -15.6,-17.4 -25.0,-24.3 C 112.9,98.1 104.7,97.8 96.8,90.8 88.8,83.7 87.7,70.4 86.3,59.7 86.9,35.4 95.2,19.7 102.3,2.8 Z"/>
</svg>
