<svg width="200" height="200" viewBox="0 0 200 200" version="1.1"
   xmlns="http://www.w3.org/2000/svg"
   xmlns:svg="http://www.w3.org/2000/svg">
   <path style="fill:#3F0AA6;stroke:#e5e5e5;stroke-width:2" d="M 96.1 0.3 A 99.5 99.5 0 0 0 0.5 103.6 A 99.5 99.5 0 0 0 103.8 199.2 A 99.5 99.5 0 0 0 199.5 95.9 L 199.5 95.9 A 99.5 99.5 0 0 0 96.1 0.3 z M 96.6 10.9 A 88.9 88.9 0 0 1 188.8 96.3 L 188.8 96.3 A 88.9 88.9 0 0 1 103.4 188.6 A 88.9 88.9 0 0 1 11.2 103.2 A 88.9 88.9 0 0 1 96.6 10.9 z " />
   <path style="fill:#3F0AA6;stroke:#e5e5e5;stroke-width:2" d="M 96.9 18.9 A 80.9 80.9 0 0 0 66.8 26.2 A 31.2 31.2 0 0 1 71.6 41.4 L 71.6 41.4 A 31.2 31.2 0 0 1 41.6 73.8 A 31.2 31.2 0 0 1 24.9 69.7 A 80.9 80.9 0 0 0 19.2 102.9 A 80.9 80.9 0 0 0 25.3 130.3 A 31.2 31.2 0 0 1 39.1 126.4 A 31.2 31.2 0 0 1 71.6 156.4 L 71.6 156.4 A 31.2 31.2 0 0 1 67.2 173.6 A 80.9 80.9 0 0 0 103.1 180.6 A 80.9 80.9 0 0 0 128.0 175.6 A 34.2 34.2 0 0 1 122.8 158.9 A 34.2 34.2 0 0 1 155.6 123.5 A 34.2 34.2 0 0 1 175.4 129.0 A 80.9 80.9 0 0 0 180.8 96.6 L 180.8 96.6 A 80.9 80.9 0 0 0 174.4 68.5 A 31.2 31.2 0 0 1 158.1 73.8 A 31.2 31.2 0 0 1 125.7 43.8 A 31.2 31.2 0 0 1 131.1 25.1 A 80.9 80.9 0 0 0 96.9 18.9 z " />
</svg>
