<svg version="1.1" width="200" height="200" viewBox="0 0 200 200"
   xmlns="http://www.w3.org/2000/svg"
   xmlns:svg="http://www.w3.org/2000/svg">
   <path style="fill:#0b828e;stroke:#ccfffa;stroke-width:2" d="m 163.1,162.7 c -1.3,-5.4 -2.2,-10.8 -7.3,-16.5 1.2,-13.4 1.7,-27.4 -0.7,-43.9 7.8,10.8 12.7,22.7 16.7,35.0 -1.1,11.5 -5.0,18.2 -8.7,25.4 z M 114.5,40.2 c 19.5,23.8 27.2,57.6 35.9,90.4 -0.1,10.2 -2.6,19.7 -5.7,29.0 -3.0,-8.9 -6.0,-16.9 -9.3,-21.9 0.1,-12.1 -0.7,-24.0 -7.1,-33.8 -2.4,-25.2 -8.9,-42.5 -13.8,-63.8 z m 6.9,84.4 c -2.0,-4.4 -4.1,-8.7 -8.7,-11.9 2.3,-5.6 3.8,-14.2 3.7,-28.9 5.2,2.8 5.8,19.7 5.0,40.8 z m -44.8,15.8 c 2.9,-6.2 7.0,-12.2 11.7,-18.1 L 86.6,76.7 c -7.5,17.4 -10.0,39.4 -10.0,63.7 z m -14.1,24.4 c 1.7,-7.1 4.7,-13.0 8.5,-18.2 C 70.7,107.4 77.1,70.9 84.4,34.9 69.8,64.9 66.0,78.2 62.8,99.0 59.6,119.8 59.2,145.3 62.6,164.7 Z m -28.6,9.3 c -0.4,-5.9 -1.4,-9.0 -0.5,-21.0 6.3,-13.1 13.0,-25.3 20.7,-35.4 -2.0,11.7 -4.1,23.4 -3.7,35.1 -6.3,6.1 -12.1,12.7 -16.5,21.2 z m 64.0,21.9 -5.7,-46.7 c 0,0 -0.9,-8.5 0.9,-28.1 1.9,-19.6 8.6,-80.0 13.8,-121.1 0.3,39.3 1.0,87.3 0.2,114.3 -0.7,27.0 0.1,13.2 -1.6,30.9 -1.7,17.7 -2.8,38.0 -7.7,50.7 z" />
</svg>
