<svg version="1.1" id="svg1" width="200" height="200" viewBox="0 0 200 200"
   xmlns="http://www.w3.org/2000/svg"
   xmlns:svg="http://www.w3.org/2000/svg">
   <path style="fill:#2a616f;stroke:#dbe5ef;stroke-width:2" d="m 107.6,90.1 c 0.4,9.1 -6.8,16.8 -15.9,17.2 -9.1,0.4 -16.8,-6.8 -17.2,-15.9 -0.4,-9.1 6.8,-16.8 15.9,-17.2 9.1,-0.4 16.8,6.8 17.2,15.9 M 8.7,127.3 c 0,0 3.0,3.4 4.7,5.0 3.1,2.8 6.1,5.7 9.8,7.6 4.3,2.2 13.9,4.3 13.9,4.3 0,0 15.4,0.9 22.9,-0.2 6.1,-0.9 12.0,-2.8 17.6,-5.2 6.2,-2.6 17.6,-9.9 17.6,-9.9 0,0 3.8,2.3 5.1,4.1 2.3,3.1 3.6,7.1 4.1,10.9 0.6,4.8 0.3,9.8 -1.4,14.4 -2.0,5.5 -9.8,14.5 -9.8,14.5 0,0 -1.3,-6.6 -3.3,-9.2 -2.5,-3.2 -6.2,-5.6 -10.0,-6.8 -4.0,-1.2 -8.6,-1.1 -12.6,0.1 -4.2,1.3 -8.6,3.7 -10.9,7.4 -2.6,4.2 -2.8,9.8 -1.9,14.6 0.9,4.7 3.0,9.6 6.7,12.5 4.2,3.3 10.2,5.0 15.5,4.2 6.3,-1.0 11.3,-6.3 16.2,-10.3 5.5,-4.4 10.6,-9.5 14.9,-15.1 4.7,-6.1 8.1,-13.1 11.5,-20.0 3.3,-6.5 6.6,-13.1 8.6,-20.1 1.3,-4.7 1.9,-9.6 2.0,-14.5 0.1,-7.3 -2.6,-21.8 -2.6,-21.8 0,0 5.3,0.6 8.3,1.5 4.0,1.2 7.5,3.9 10.7,6.7 2.8,2.5 5.3,5.5 7.2,8.8 2.8,4.8 4.3,10.3 6.3,15.5 1.9,4.9 5.7,14.6 5.7,14.6 0,0 1.5,-15.9 -0.2,-23.6 -1.3,-5.8 -4.4,-11.1 -7.4,-16.1 -3.5,-5.8 -7.8,-11.1 -12.4,-16.1 -2.2,-2.3 -4.6,-4.4 -7.1,-6.3 -4.9,-3.7 -15.5,-10.0 -15.5,-10.0 0,0 -0.5,-3.8 0,-5.6 0.9,-3.2 3.2,-5.9 5.5,-8.3 2.5,-2.6 5.5,-4.8 8.8,-6.2 4.5,-1.8 9.4,-2.5 14.3,-2.4 3.5,0.1 10.2,2.5 10.2,2.5 0,0 -3.6,3.7 -5.0,6.0 -1.7,2.8 -3.6,5.9 -3.8,9.2 -0.3,3.9 0.5,8.3 2.7,11.5 2.4,3.5 6.4,6.0 10.4,7.4 3.6,1.3 7.8,1.5 11.5,0.5 3.3,-0.9 6.4,-2.9 8.8,-5.3 2.4,-2.5 4.4,-5.7 5.1,-9.0 0.9,-4.7 0.6,-10.1 -1.9,-14.1 -3.2,-5.4 -9.7,-8.2 -15.4,-11.0 -6.5,-3.3 -13.7,-5.3 -20.9,-6.7 -8.7,-1.6 -17.8,-2.0 -26.7,-1.6 -7.8,0.3 -15.9,0.8 -23.3,3.5 -10.1,3.7 -26.1,17.7 -26.1,17.7 0,0 -3.0,-2.1 -3.4,-3.0 -2.1,-4.9 -1.5,-10.6 -0.9,-15.9 0.5,-4.1 1.9,-8.1 3.7,-11.8 2.1,-4.2 5.1,-8.0 8.3,-11.5 C 89.5,9.1 100.9,0.2 100.9,0.2 c 0,0 -9.7,1.9 -14.0,4.2 -3.7,2.0 -6.8,4.9 -9.8,7.9 -3.7,3.7 -7.0,7.9 -9.8,12.4 -3.6,5.8 -6.6,12.0 -8.7,18.5 -1.8,5.8 -2.9,11.9 -3.2,18.0 -0.2,4.3 1.0,13.0 1.0,13.0 0,0 -8.5,0.9 -12.6,0.2 -3.3,-0.5 -6.5,-1.6 -9.4,-3.1 -3.6,-1.8 -7.3,-3.9 -9.7,-7.2 -3.2,-4.5 -5.1,-15.9 -5.1,-15.9 0,0 5.8,1.9 8.8,1.7 3.4,-0.2 6.8,-1.4 9.7,-3.2 3.2,-2.0 6.6,-4.6 8.1,-8.2 1.7,-4.2 1.5,-9.4 0,-13.8 -1.4,-4.2 -4.3,-8.4 -8.2,-10.5 -5.6,-3.0 -13.1,-3.9 -18.8,-1.4 -5.1,2.2 -8.8,7.8 -10.5,13.1 -2.5,7.8 0.0,16.5 1.6,24.5 1.6,8.0 4.3,15.8 7.8,23.2 3.1,6.4 7.0,12.3 11.4,17.9 5.0,6.2 10.4,12.3 16.9,16.9 7.0,4.9 23.1,11.2 23.1,11.2 0,0 -9.9,12.7 -17.1,15.6 -5.5,2.2 -12.0,1.4 -17.9,0.5 -8.9,-1.3 -25.7,-8.6 -25.7,-8.6 z m 94.1,-4.2 c 7.4,-2.5 12.7,-8.7 17.4,-16.1 0.7,13.7 -2.9,24.3 -7.4,32.8 -2.6,-6.0 -5.2,-12.7 -9.9,-16.7 z m -26.2,-2.2 c 2.7,2.5 5.8,4.2 9.4,4.8 -4.8,1.6 -9.5,3.7 -14.6,4.2 1.4,-1.4 2.9,-3.2 5.2,-9.0 z M 36.8,83.1 c 6.1,0.6 13.3,2.7 19.6,0.2 0.1,7.9 -1.6,15.7 5.1,23.4 C 51.6,100.2 42.6,93.0 36.8,83.1 Z M 66.0,52.8 c 2.2,3.0 3.4,5.5 6.8,7.7 -2.8,1.3 -5.6,4.6 -8.4,7.4 -0.6,-5.2 -1.4,-10.5 1.6,-15.1 z m 58.3,-6.0 c -5.4,5.2 -10.1,10.1 -11.0,16.0 -5.5,-3.4 -12.2,-5.8 -19.3,-7.6 6.8,-7.2 17.5,-9.6 30.4,-8.4 z m -1.7,31.7 c 4.8,2.0 10.8,6.1 12.4,9.7 -5.0,-1.3 -6.3,-1.0 -9.4,-0.9 -0.5,-3.1 -2.1,-5.9 -3.0,-8.8 z" />
</svg>
