<svg version="1.1" width="200" height="200" viewBox="0 0 200 200" id="svg2"
   xmlns="http://www.w3.org/2000/svg"
   xmlns:svg="http://www.w3.org/2000/svg">
   <path style="fill:#005499;stroke:#dbe7ef;stroke-width:2" d="m 161.0,98.5 c 1.3,32.4 -24.0,59.7 -56.4,61.0 C 72.1,160.7 44.8,135.4 43.6,103.0 42.3,70.6 67.6,43.3 100.0,42.0 132.4,40.8 159.7,66.0 161.0,98.5 M 53.3,63.7 49.1,66.1 c 0,0 -2.1,-6.2 -4.7,-7.8 -4.4,-2.7 -10.9,1.1 -15.6,-1.1 -3.4,-1.6 -7.6,-8.2 -7.6,-8.2 0,0 0.2,9.2 2.7,12.7 2.4,3.5 7.8,4.0 10.8,7.0 3.3,3.2 7.7,11.3 7.7,11.3 0,0 -6.1,2.6 -8.9,1.6 -3.4,-1.2 -7.2,-8.0 -7.2,-8.0 0,0 1.3,8.7 3.9,12.0 2.9,3.6 12.1,7.0 12.1,7.0 0,0 -8.9,-1.0 -13.2,-0.1 -3.8,0.8 -6.8,4.3 -10.6,5.0 -5.0,0.8 -15.1,-1.6 -15.1,-1.6 0,0 5.1,6.2 8.6,8.0 3.3,1.7 7.2,1.4 10.8,2.0 3.2,0.6 6.8,0.2 9.7,1.7 4.2,2.1 10.4,9.6 10.4,9.6 -6.1,2.2 -11.9,1.5 -17.6,-0.5 0,0 5.2,6.3 8.8,8.0 3.5,1.6 11.5,1.5 11.5,1.5 0,0 -8.5,2.3 -11.7,5.0 -3.2,2.6 -3.4,8.1 -6.9,10.3 -4.0,2.6 -14.2,2.1 -14.2,2.1 0,0 9.5,6.0 14.8,5.6 3.8,-0.3 6.5,-4.0 9.9,-5.6 2.7,-1.3 5.5,-3.4 8.5,-3.2 4.0,0.3 10.6,5.9 10.6,5.9 -4.2,4.2 -9.4,6.1 -14.8,7.6 0,0 9.3,2.1 13.6,0.7 2.5,-0.8 6.1,-4.8 6.1,-4.8 l 2.7,2.5 c 0,0 -6.1,6.1 -6.9,10.2 -0.6,3.2 3.1,6.3 2.3,9.4 -1.4,5.3 -11.2,12.1 -11.2,12.1 0,0 11.1,-1.3 15.2,-4.6 3.6,-2.9 3.0,-9.2 6.5,-12.2 4.0,-3.4 15.0,-5.0 15.0,-5.0 -2.1,5.6 -4.2,11.2 -8.8,15.1 0,0 7.0,-2.4 9.9,-4.6 3.2,-2.4 7.7,-9.2 7.7,-9.2 0,0 0.7,8.6 1.8,12.7 1.1,3.8 4.2,6.9 4.6,10.8 0.4,3.8 -1.9,11.3 -1.9,11.3 0,0 6.8,-6.8 8.8,-11.1 1.9,-4.2 1.3,-9.2 2.7,-13.5 1.3,-4.1 5.3,-11.6 5.3,-11.6 0,0 3.6,5.2 4.1,8.2 0.5,2.9 -1.2,8.7 -1.2,8.7 0,0 5.0,-5.0 6.2,-8.2 1.2,-3.4 0.6,-10.7 0.6,-10.7 0,0 8.8,7.1 13.0,10.9 2.4,2.2 5.9,3.8 7.0,6.9 1.3,3.7 -1.2,11.7 -1.2,11.7 0,0 4.8,-3.9 6.1,-6.7 1.2,-2.6 1.9,-5.7 1.4,-8.5 -0.8,-4.0 -5.0,-6.6 -6.4,-10.4 -1.9,-5.0 -2.8,-15.9 -2.8,-15.9 0,0 6.2,1.1 8.2,3.2 1.9,1.9 2.9,7.6 2.9,7.6 0,0 2.0,-5.3 1.9,-8.0 -0.2,-4.2 -4.1,-12.0 -4.1,-12.0 0,0 6.4,5.2 10.3,6.2 3.8,1.0 8.1,-1.6 11.8,-0.3 3.7,1.2 9.4,7.2 9.4,7.2 0,0 -1.3,-8.1 -3.6,-11.3 -2.7,-3.7 -8.1,-4.7 -11.2,-8.1 -2.8,-3.2 -6.1,-11.2 -6.1,-11.2 0,0 6.1,-0.9 8.8,0.3 2.3,1.0 5.2,5.3 5.2,5.3 0,0 -1.2,-5.8 -2.6,-8.3 -2.2,-3.9 -8.7,-10.2 -8.7,-10.2 0,0 7.4,1.8 10.9,1.0 3.1,-0.7 5.3,-3.8 8.3,-4.6 4.2,-1.2 13.1,-0.6 13.1,-0.6 0,0 -5.2,-5.2 -8.6,-6.4 -4.4,-1.5 -9.7,1.4 -14.0,-0.5 -4.6,-2.0 -10.8,-10.6 -10.8,-10.6 0,0 4.8,-1.6 7.3,-1.6 2.6,0.1 7.4,1.9 7.4,1.9 0,0 -3.6,-5.6 -6.5,-6.8 -3.1,-1.3 -10.2,0.1 -10.2,0.1 0,0 -0.1,-4.1 -0.1,-4.5 0,-0.5 6.8,-4.7 9.5,-7.8 1.7,-2.0 2.2,-5.0 4.2,-6.8 3.3,-2.9 12.2,-5.3 12.2,-5.3 0,0 -8.2,-4.9 -12.6,-4.3 -3.9,0.6 -6.0,5.4 -9.6,6.9 -4.7,1.9 -15.0,2.5 -15.0,2.5 0,0 -5.4,-6.5 -5.4,-7.0 0,-0.5 16.2,-4.6 16.2,-4.6 0,0 -6.6,-2.6 -10.0,-2.6 -3.8,0.1 -10.9,3.2 -10.9,3.2 0,0 4.2,-5.4 5.0,-8.6 0.7,-3.0 -1.3,-6.2 -0.6,-9.2 1.3,-5.3 8.3,-14.1 8.3,-14.1 0,0 -8.9,4.5 -12.5,7.9 -2.6,2.4 -3.9,6.0 -6.3,8.6 -2.9,3.0 -9.7,8.0 -9.7,8.0 l -4.2,-0.3 c 0,0 -0.9,-6.6 0.6,-9.4 1.6,-3.1 8.1,-6.4 8.1,-6.4 0,0 -5.4,-0.4 -7.7,0.7 -2.4,1.2 -4.2,3.6 -5.6,5.9 -1.4,2.1 -2.9,7.1 -2.9,7.1 l -4.7,-1.5 c 0,0 1.2,-8.6 0.2,-12.7 -0.8,-3.5 -4.3,-6.0 -4.7,-9.6 -0.6,-4.8 3.2,-14.1 3.2,-14.1 0,0 -8.5,7.4 -10.2,12.5 -1.3,3.9 1.1,8.2 0.6,12.2 -0.6,4.5 -4.1,12.9 -4.1,12.9 l -4.5,0.6 c 0,0 -2.4,-5.3 -3.0,-8.1 -0.7,-3.1 -0.7,-9.4 -0.7,-9.4 0,0 -4.8,5.1 -5.5,8.3 -0.8,3.6 1.6,10.8 1.6,10.8 l -7.3,3.6 c 0,0 1.9,-7.7 0.3,-10.9 -1.7,-3.4 -6.2,-4.4 -9.1,-6.8 -2.5,-2.0 -6.1,-3.2 -7.2,-6.1 -1.1,-2.8 1.1,-9.0 1.1,-9.0 0,0 -5.2,3.1 -6.2,5.8 -1.1,2.8 -0.3,6.2 0.8,9.0 1.5,3.9 6.1,6.0 7.4,9.9 1.8,5.1 0.6,16.2 0.6,16.2 l -2.6,2.8 c 0,0 -4.8,-4.8 -6.3,-7.6 -1.1,-2.2 -1.6,-7.4 -1.6,-7.4 0,0 -3.0,2.4 -3.6,4.2 -0.9,2.4 -0.5,5.3 0.2,7.8 1.2,3.9 6.7,10.3 6.7,10.3 z" />
   <path style="fill:#005499;;stroke:#dbe7ef;stroke-width:2" d="m 99.5,34.5 a 66.7,66.7 0 0 0 -64.0,69.2 66.7,66.7 0 0 0 69.2,64.1 66.7,66.7 0 0 0 64.1,-69.2 v -0.0 A 66.7,66.7 0 0 0 99.5,34.5 Z m 0.5,12.0 a 53.6,53.6 0 0 1 55.6,51.5 v 0.0 A 53.6,53.6 0 0 1 104.1,153.7 53.6,53.6 0 0 1 48.5,102.2 53.6,53.6 0 0 1 100.0,46.6 Z" />
</svg>
