<svg version="1.1" width="200" height="200" viewBox="0 0 200 200"
   xmlns="http://www.w3.org/2000/svg"
   xmlns:svg="http://www.w3.org/2000/svg">
   <path style="fill:#0f5f8a;stroke:#dbe7ef;stroke-width:2" d="m 39.4,185.9 c 0,0 22.4,-12.4 29.4,-22.6 4.5,-6.5 5.5,-15.0 6.6,-22.8 0.8,-6.3 0.2,-12.7 -0.2,-19.0 C 74.6,112.2 72.8,103.0 72.0,93.7 71.4,86.3 68.9,78.6 70.9,71.5 75.3,55.5 89.8,44.2 98.7,30.1 c 2.2,-3.5 4.9,-6.9 6.3,-10.9 1.7,-4.5 2.7,-14.2 2.7,-14.2 0,0 15.4,9.1 22.2,14.9 6.9,5.9 13.5,12.4 18.5,19.9 5.4,7.9 9.5,16.8 12.2,26.0 2.9,9.9 4.5,20.4 4.1,30.7 -0.4,10.0 -2.5,20.1 -6.3,29.4 -3.7,8.7 -9.2,17.1 -15.1,24.5 -3.6,4.5 -7.6,8.6 -12.5,11.7 -5.1,3.2 -17.2,5.9 -17.2,5.9 0,0 13.8,-15.3 18.3,-24.4 3.6,-7.4 6.0,-15.5 7.4,-23.6 1.8,-10.2 3.0,-20.9 1.6,-31.1 -1.0,-7.4 -3.9,-14.5 -7.5,-21.0 -3.4,-6.4 -7.7,-12.5 -13.1,-17.4 -2.2,-2.0 -4.8,-3.9 -7.7,-4.7 -4.3,-1.3 -13.3,-0.2 -13.3,-0.2 l -17.2,25.5 2.5,5.4 c 0,0 -0.9,10.6 -0.5,15.8 0.8,9.3 4.9,18.2 5.5,27.6 0.5,7.2 0.0,14.6 -1.2,21.7 -1.3,7.1 -3.0,14.4 -6.3,20.8 -4.0,7.7 -10.4,13.8 -15.8,20.6 -4.3,5.4 -13.1,16.1 -13.1,16.1 z" />
   <path style="fill:#0f5f8a;stroke:#dbe7ef;stroke-width:2" d="m 43.8,178.1 c 9.1,-4.3 15.8,-9.9 22.4,-15.7 4.8,2.9 9.0,6.8 12.7,11.3 -5.5,8.8 -11.8,17.0 -20.0,23.8 -8.8,-5.8 -11.9,-12.6 -15.1,-19.4 z M 69.8,66.4 c 0,0 2.6,-11.6 5.6,-16.6 3.1,-5.2 8.5,-8.7 12.6,-13.1 2.9,-3.1 8.5,-9.6 8.5,-9.6 0,0 6.7,4.9 8.9,8.4 2.2,3.5 3.6,11.9 3.6,11.9 0,0 -9.1,4.9 -12.4,8.6 -3.2,3.7 -5.4,8.3 -6.8,13.0 -1.0,3.3 -1.4,10.2 -1.4,10.2 C 81.3,76.3 74.9,72.4 69.8,66.4 Z" />
   <path style="fill:none;stroke:#dbe7ef;stroke-width:2" d="m 105.0,19.3 c 0,0 7.6,6.0 11.3,9.2 4.5,4.0 9.1,7.9 13.2,12.3 4.7,5.1 9.3,10.3 12.8,16.3 3.6,6.1 6.7,12.7 8.3,19.6 1.9,8.5 2.0,17.5 1.2,26.2 -0.6,6.9 -2.8,13.6 -4.7,20.2 -1.6,5.3 -3.3,10.7 -5.8,15.7 -2.6,5.2 -5.5,10.3 -9.4,14.6 -5.2,5.8 -18.3,14.7 -18.3,14.7" id="path3" />
</svg>
