<svg version="1.1" width="200" height="200" viewBox="0 0 200 200"
   xmlns="http://www.w3.org/2000/svg"
   xmlns:svg="http://www.w3.org/2000/svg">
   <path style="fill:#891010;stroke:#ffebcb;stroke-width:2" d="M 100.6,14.7 19.1,128.5 h 49.3 l 32.2,35.8 33.2,-35.8 h 47.1 z m -0.2,17.6 28.7,41.6 c 0,0 -18.5,-7.1 -28.8,-7.1 -9.7,0.0 -28.2,7.1 -28.2,7.1 z m 3.1,42.9 c 7.1,0.1 32.1,1.7 39.3,18.8 -17.1,23.3 -73.6,15.3 -84.9,-10e-7 C 68.6,78.1 88.6,75.0 103.5,75.2 Z M 53.5,100.6 c 33.7,22.6 71.1,15.1 94.1,0.2 l 12.2,17.4 H 41.4 Z m 28.6,27.8 h 37.7 l -18.7,23.8 z" />
   <path style="fill:#999600;stroke:#ffebcb;stroke-width:2" d="M 87.7,66.2 100.4,196.2 113.4,66.2 100.6,58.1 Z" />
   <path style="fill:#999600;stroke:#ffebcb;stroke-width:2" d="m 100.5,69.4 -5.9,-7.7 -0.3,-42.9 4.2,-4.0 -3.6,-5.3 5.5,-7.6 5.9,7.6 -4.0,5.3 3.8,4.0 v 42.9 z" />
   <path style="fill:#999600;stroke:#ffebcb;stroke-width:2" d="m 70.7,55.8 c 19.6,-4.9 31.1,-4.0 61.7,-1.0 l -8.6,9.9 c -7.1,-4.6 -15.2,-4.8 -23.4,-4.8 -14.2,0.2 -18.3,2.2 -23.1,5.3 z" />
   <path style="fill:#999600;stroke:#ffebcb;stroke-width:2" d="M 100.4,196.2 100.5,69.4" />
</svg>
