<svg version="1.1" id="svg1" width="200" height="200" viewBox="0 0 200 200"
   xmlns="http://www.w3.org/2000/svg"
   xmlns:svg="http://www.w3.org/2000/svg">
   <path style="fill:#8f9900;stroke:#efefdb;stroke-width:1" d="m 100.4,3.9 c 0,0 -6.0,21.9 -7.9,26.9 -1.0,2.8 -2.2,6.4 -5.5,3.3 l -0.1,-1.4 c 8.4,0.4 0.7,-10.7 -3.7,-2.9 -3.4,6.1 4.2,12.2 9.4,8.7 1.9,-1.3 3.2,-4.2 7.7,-18.3 4.8,15.7 5.5,16.7 7.4,18.0 6.9,4.6 13.0,-4.5 8.9,-9.2 -5.7,-6.6 -9.7,4.2 -2.9,3.6 -2e-5,0 0.2,0.7 0.0,1.1 -0.2,0.5 -1.9,2.7 -4.1,0.2 -1.1,-1.2 -9.3,-30.0 -9.3,-30.0 z m 45.7,22.0 c 0,0 -12.2,12.0 -15.4,14.6 -1.7,1.5 -3.9,3.4 -4.8,0.1 l 0.5,-0.9 c 5.4,3.4 4.5,-6.8 -1.3,-3.3 -4.6,2.7 -1.9,9.6 2.8,9.3 1.7,-0.1 3.7,-1.6 12.0,-9.0 -2.8,12.1 -2.7,13.1 -2.0,14.6 2.8,5.6 10.2,2.0 9.3,-2.7 -1.3,-6.5 -8.0,-0.9 -3.3,1.3 0,0 -0.1,0.5 -0.4,0.7 -0.3,0.3 -2.2,1.1 -2.8,-1.4 -0.3,-1.2 5.3,-23.2 5.3,-23.2 z m -96.2,2.3 c 0,0 4.3,16.6 5.0,20.6 0.4,2.2 1.0,5.0 -2.3,4.2 l -0.6,-0.9 c 5.7,-2.9 -3.6,-7.3 -3.5,-0.5 0.1,5.3 7.3,6.4 9.4,2.2 0.8,-1.6 0.5,-4.0 -1.8,-14.9 9.1,8.5 9.9,8.9 11.6,9.0 6.3,0.4 6.9,-7.9 2.3,-9.4 -6.3,-2.2 -4.8,6.4 -0.5,3.5 0,0 0.4,0.4 0.4,0.7 0.1,0.4 -0.2,2.5 -2.6,1.7 C 66.1,43.9 49.8,28.2 49.8,28.2 Z M 152.2,52.8 c -5.3,0.1 -6.4,7.3 -2.2,9.4 1.6,0.8 4.0,0.5 14.9,-1.8 -8.5,9.1 -8.9,10.0 -9.0,11.6 -0.4,6.3 7.9,6.8 9.4,2.3 2.2,-6.3 -6.4,-4.8 -3.5,-0.5 0,0 -0.4,0.4 -0.7,0.4 -0.4,0.1 -2.5,-0.2 -1.7,-2.6 0.4,-1.2 16.2,-17.4 16.2,-17.4 0,0 -16.6,4.3 -20.6,5.0 -2.2,0.4 -5.0,1.0 -4.2,-2.3 l 0.9,-0.6 c 2.9,5.7 7.3,-3.6 0.5,-3.5 z M 46.0,57.1 c -0.3,-0.0 -0.6,0.0 -0.9,0.1 -6.5,1.3 -0.9,8.0 1.3,3.3 0,0 0.5,0.1 0.7,0.4 0.3,0.3 1.1,2.2 -1.4,2.8 -1.2,0.3 -23.2,-5.3 -23.2,-5.3 0,0 12.0,12.2 14.6,15.4 1.5,1.7 3.4,3.9 0.1,4.8 l -0.9,-0.5 c 3.4,-5.4 -6.8,-4.5 -3.3,1.3 2.7,4.6 9.6,1.9 9.3,-2.8 -0.1,-1.7 -1.6,-3.7 -9.0,-12.0 12.1,2.8 13.1,2.7 14.6,2.0 5.3,-2.6 2.4,-9.3 -1.8,-9.4 z M 167.5,82.1 c -4.7,0.2 -8.2,6.0 -5.3,10.2 1.3,1.9 4.2,3.2 18.3,7.7 -15.7,4.8 -16.7,5.5 -18.0,7.4 -4.6,6.9 4.5,13.0 9.2,8.9 6.6,-5.7 -4.2,-9.7 -3.6,-2.9 0,0 -0.7,0.2 -1.1,0.0 -0.5,-0.2 -2.7,-1.9 -0.2,-4.1 1.2,-1.1 30.0,-9.3 30.0,-9.3 0,0 -21.9,-6.0 -26.9,-7.9 -2.8,-1.0 -6.4,-2.2 -3.3,-5.5 l 1.4,-0.1 c -0.4,8.4 10.7,0.7 2.9,-3.7 -1.1,-0.6 -2.3,-0.9 -3.4,-0.9 z M 32.2,82.6 c -1.3,0.0 -2.5,0.4 -3.6,1.3 -6.6,5.7 4.2,9.7 3.6,2.9 0,-2e-6 0.7,-0.2 1.1,-0.0 0.5,0.2 2.7,1.9 0.2,4.1 -1.2,1.1 -30.0,9.3 -30.0,9.3 0,0 21.9,6.0 26.9,7.9 2.8,1.0 6.4,2.2 3.3,5.5 l -1.4,0.1 c 0.4,-8.4 -10.7,-0.7 -2.9,3.7 6.1,3.4 12.2,-4.2 8.7,-9.4 -1.3,-1.9 -4.2,-3.2 -18.3,-7.7 15.7,-4.8 16.7,-5.5 18.0,-7.4 3.6,-5.4 -1.1,-10.3 -5.7,-10.2 z M 161.9,119.6 c -2.6,0.1 -5.3,2.2 -5.1,5.2 0.1,1.7 1.6,3.7 9.0,12.0 -12.1,-2.8 -13.1,-2.7 -14.6,-2.0 -5.6,2.8 -2.0,10.2 2.7,9.3 6.5,-1.3 0.9,-8.0 -1.3,-3.3 0,0 -0.5,-0.1 -0.7,-0.4 -0.3,-0.3 -1.1,-2.2 1.4,-2.8 1.2,-0.3 23.2,5.3 23.2,5.3 0,0 -12.0,-12.2 -14.6,-15.4 -1.5,-1.7 -3.4,-3.9 -0.1,-4.8 l 0.9,0.5 c -3.4,5.4 6.8,4.5 3.3,-1.3 -1.0,-1.7 -2.6,-2.4 -4.2,-2.3 z m -121.7,6.1 c -2.0,-0.0 -3.9,1.0 -4.6,2.9 -2.2,6.3 6.4,4.8 3.5,0.5 0,0 0.4,-0.4 0.7,-0.4 0.4,-0.1 2.5,0.2 1.7,2.6 -0.4,1.2 -16.2,17.4 -16.2,17.4 0,0 16.6,-4.3 20.6,-5.0 2.2,-0.4 5.0,-1.0 4.2,2.3 l -0.9,0.6 c -2.9,-5.7 -7.3,3.6 -0.5,3.5 5.3,-0.1 6.4,-7.3 2.2,-9.4 -1.6,-0.8 -4.0,-0.5 -14.9,1.8 8.5,-9.1 8.9,-9.9 9.0,-11.6 0.2,-3.5 -2.3,-5.2 -4.8,-5.3 z m 105.9,20.6 c -1.7,0.0 -3.4,0.9 -4.3,2.6 -0.8,1.6 -0.5,4.0 1.8,14.9 -9.1,-8.5 -10.0,-8.9 -11.6,-9.0 -6.3,-0.4 -6.9,7.9 -2.3,9.4 6.3,2.2 4.8,-6.4 0.5,-3.5 0,0 -0.4,-0.4 -0.4,-0.7 -0.1,-0.4 0.2,-2.5 2.6,-1.7 1.2,0.4 17.4,16.2 17.4,16.2 0,0 -4.3,-16.6 -5.0,-20.6 -0.4,-2.2 -1.0,-5.0 2.3,-4.2 l 0.6,0.9 c -5.7,2.9 3.6,7.3 3.5,0.5 -0.0,-3.1 -2.6,-4.8 -5.2,-4.8 z m -86.5,2.9 c -2.8,0.1 -5.5,2.6 -4.9,5.5 1.3,6.5 8.0,0.9 3.3,-1.3 0,0 0.1,-0.5 0.4,-0.7 0.3,-0.3 2.2,-1.1 2.8,1.4 0.3,1.2 -5.3,23.2 -5.3,23.2 0,0 12.2,-12.1 15.4,-14.6 1.7,-1.5 3.9,-3.4 4.8,-0.1 l -0.5,0.9 c -5.4,-3.4 -4.5,6.8 1.3,3.3 4.6,-2.7 1.9,-9.6 -2.8,-9.3 -1.7,0.1 -3.7,1.6 -12.0,9.0 2.8,-12.1 2.7,-13.1 2.0,-14.6 -1.0,-2.1 -2.7,-2.9 -4.4,-2.9 z m 52.5,11.6 c -1.1,0.0 -2.1,0.4 -3.1,1.0 -1.9,1.3 -3.2,4.2 -7.7,18.3 -4.8,-15.7 -5.5,-16.7 -7.4,-18.0 -6.9,-4.6 -13.0,4.5 -8.9,9.2 5.7,6.6 9.7,-4.2 2.9,-3.6 0,0 -0.2,-0.7 -0.0,-1.1 0.2,-0.5 1.9,-2.7 4.1,-0.2 1.1,1.2 9.3,30.0 9.3,30.0 0,0 6.0,-21.9 7.9,-26.9 1.0,-2.8 2.2,-6.4 5.5,-3.3 l 0.1,1.4 c -8.4,-0.4 -0.7,10.7 3.7,2.9 2.8,-5.0 -1.7,-9.9 -6.3,-9.7 z" />
   <path style="fill:#8f9900;stroke:#efefdb;stroke-width:2" d="m 108.5,90.2 c 0.2,4.5 -3.4,8.3 -7.9,8.5 -4.5,0.2 -8.3,-3.4 -8.5,-7.9 -0.2,-4.5 3.4,-8.3 7.9,-8.5 4.5,-0.2 8.3,3.4 8.5,7.9 M 99.9,38.3 46.7,134.2 153.9,132.9 Z m 0,16.3 42.2,72.8 H 58.9 Z" />
   <path style="fill:#8f9900;stroke:#efefdb;stroke-width:2" d="m 97.5,38.1 a 62.8,62.8 0 0 0 -60.3,65.2 62.8,62.8 0 0 0 65.2,60.3 62.8,62.8 0 0 0 60.3,-65.2 v -0.0 A 62.8,62.8 0 0 0 97.5,38.1 Z m 0.4,9.7 a 53.1,53.1 0 0 1 55.2,51.0 v 0.0 A 53.1,53.1 0 0 1 102.0,153.9 53.1,53.1 0 0 1 46.8,102.9 53.1,53.1 0 0 1 97.9,47.7 Z" />
</svg>
