<svg version="1.1" id="svg1" width="200" height="200" viewBox="0 0 200 200"
   xmlns="http://www.w3.org/2000/svg"
   xmlns:svg="http://www.w3.org/2000/svg">
   <path style="fill:#656565;stroke:#e5e5e5;stroke-width:2" d="m 84.7,68.1 a 7.1,7.5 0 0 1 -6.8,7.7 7.1,7.5 0 0 1 -7.4,-7.2 7.1,7.5 0 0 1 6.8,-7.7 7.1,7.5 0 0 1 7.4,7.2 M 90.5,8.6 V 28.6 H 35.5 V 171.8 H 61.4 L 49.7,160.0 V 74.9 L 98.6,171.8 146.7,74.9 v 87.9 l -10.5,9.0 h 25.4 V 28.6 H 103.1 V 8.6 Z M 49.7,45.6 h 40.8 v 85.9 z m 53.4,0 h 44.4 l -14.4,27.8 h -30.0 z m 21.8,43.7 -21.8,42.2 V 89.5 Z" />
   <path style="fill:#656565;stroke:#e5e5e5;stroke-width:2" d="M 95.9,3.2 A 96.7,96.2 0 0 0 2.9,103.1 96.7,96.2 0 0 0 103.4,195.5 96.7,96.2 0 0 0 196.3,95.6 l -0.0,-0.0 A 96.7,96.2 0 0 0 95.9,3.2 Z M 95.3,14.4 a 86.8,86.3 0 0 1 90.1,82.9 v 0.0 A 86.8,86.3 0 0 1 102.0,186.9 86.8,86.3 0 0 1 11.9,104.0 86.8,86.3 0 0 1 95.3,14.4 Z" />
</svg>
