<?xml vrsion="1.0" encoding="UTF-8" standalone="no"?>
<svg version="1.1" width="200" height="200" viewBox="0 0 200 200"
   xmlns="http://www.w3.org/2000/svg"
   xmlns:svg="http://www.w3.org/2000/svg">
   <path style="fill:#919900;stroke:#ffffcb;stroke-width:2" inkscape:label="Circle" d="M 95.9,3.3 C 42.2,5.3 0.4,50.5 2.4,104.2 4.5,157.9 49.7,199.8 103.4,197.7 c 53.7,-2.1 95.5,-47.3 93.5,-101.0 v -0.0 C 194.8,43.0 149.6,1.2 95.9,3.3 Z M 93.7,11.2 V 30.3 L 65.5,20.6 c 7.4,-4.9 16.8,-8.0 28.3,-9.4 z m 11.1,0.5 c 10.7,0.0 19.7,3.2 27.8,8.2 l -28.5,10.1 -0.3,-18.3 c 0.3,-0.0 0.7,-0.0 1.0,-0.0 z m -52.0,14.3 32.9,10.8 -8.8,5.4 -25.8,-7.4 -0.4,26.8 -8.6,5.6 -1.5,-31.7 c 2.9,-4.0 7.1,-7.0 12.1,-9.4 z m 93.2,0.7 c 4.7,2.5 8.8,5.5 11.0,10.1 l -1.1,30.2 -8.4,-5.4 0.5,-25.9 -26.7,6.7 -7.5,-5.5 z M 59.2,43.6 74.5,50.1 74.0,67.2 59.2,62.0 Z m 78.5,0.5 1.2,17.2 -14.4,5.4 -0.4,-16.5 z M 32.3,44.3 34.5,71.8 17.7,67.2 c 3.4,-8.6 8.0,-16.4 14.7,-23.0 z m 132.0,0.9 c 7.2,5.5 12.8,13.3 16.7,22.3 l -18.6,5.4 z m -50.2,1.1 -1.2,34.7 29.5,-10.5 c -0.6,10.4 2.2,19.7 6.6,28.5 l -31.4,2.9 20.4,26.7 c -9.2,4.0 -16.3,9.2 -19.6,16.7 L 99.6,114.7 80.2,145.8 C 74.0,137.9 67.0,132.3 59.7,127.7 L 81.0,100.5 49.2,98.2 c 4.1,-8.6 7.0,-17.5 8.0,-27.0 L 85.2,81.4 82.9,46.7 c 10.3,1.4 20.7,2.1 31.2,-0.5 z m 68.5,33.1 c 0.8,9.1 1.3,17.3 1.4,24.4 L 163.9,83.0 Z M 15.8,80.4 34.7,82.6 13.8,104.0 C 13.3,96.6 13.3,88.9 15.8,80.4 Z m 21.0,11.8 2.7,7.3 -15.5,20.2 2.3,4.7 20.8,2.1 10.3,12.3 -38.2,-6.0 c -3.3,-4.8 -4.6,-10.0 -5.3,-15.3 z m 123.0,0.7 23.4,23.6 c -1.3,5.9 -2.3,12.0 -5.8,16.3 l -35.9,5.2 8.9,-12.5 19.8,-0.7 1.9,-3.0 -14.0,-20.1 z m -115.1,13.7 18.6,1.6 -9.2,10.6 -16.2,-0.9 z m 106.6,0.4 7.5,10.6 -15.0,1.6 -9.0,-11.0 z m -51.6,32.7 7.2,11.1 -7.2,10.8 -7.8,-10.6 z m 69.3,5.4 c -3.4,7.5 -7.9,14.1 -15.3,18.4 l -12.5,-13.2 z m -142.2,0.3 31.3,5.2 -13.5,13.8 C 36.0,159.3 31.2,152.4 26.7,145.3 Z m 106.0,9.5 9.9,14.6 c -7.1,5.7 -16.0,8.3 -24.9,10.9 z m -67.7,0.1 14.0,25.7 C 70.3,178.9 61.6,174.7 54.2,169.4 Z m 46.7,3.4 h 10.2 l -16.4,25.4 c -4.5,0.6 -9.1,0.8 -13.8,0 l -15.3,-25.0 9.6,0.4 12.7,16.8 z" />
</svg>
   