<svg version="1.1" width="200" height="200" viewBox="0 0 200 200"
   xmlns="http://www.w3.org/2000/svg"
   xmlns:svg="http://www.w3.org/2000/svg">
   <path style="fill:#179108;stroke:#cdffca;stroke-width:2" d="m 101.3,33.9 c -63.8,0.2 -59.7,65.1 -58.4,77.0 0.8,7.4 4.7,10.7 6.1,11.4 3.1,1.5 14.4,-2.0 15.9,4.4 0.6,2.6 4.4,9.1 5.8,10.0 17.8,-14.8 37.0,-15.5 57.8,-0.9 1.3,-2.4 6.2,-13.4 8.9,-13.8 3.5,-0.6 7.1,3.0 10.6,2.1 12.6,-3.4 2.7,-28.1 3.0,-30.0 0.3,-2.4 2.9,-4.0 3.4,-6.3 0.9,-4.6 -0.5,-9.4 -1.7,-14.0 C 145.2,47.4 129.4,35.4 101.3,33.9 Z M 89.5,72.7 c 0.9,18.2 -50.6,23.7 -20.3,-5.3 6.3,-4.6 19.8,-4.4 20.3,5.3 z m 37.9,-6.3 c 38.3,13.2 -16.0,34.8 -14.6,7.1 0.1,-2.1 0.2,-4.5 1.7,-5.9 2.2,-2.0 9.2,-2.2 12.9,-1.3 z m -26.8,8.4 c 9.3,1.8 15.3,22.8 9.0,27.1 -1.3,0.9 -7.3,3.0 -9.1,-3.5 -0.9,-3.6 -0.4,-11.2 -0.4,-11.2 l 0.1,-0.2 c 0,0 -0.2,7.5 -1.3,10.8 -1.7,5.4 -10.3,6.9 -12.1,2.8 -2.4,-5.6 9.2,-25.8 13.8,-25.8 z"/>
   <path style="fill:#179108;stroke:#cdffca;stroke-width:2" d="m 122.1,138.0 1.6,-8.3 m -7.9,5.4 2.3,-10.3 m -8.5,6.5 0.4,-9.0 m -8.7,8.4 -0.5,-11.1 M 93.6,131.7 92.6,121.5 m -3.1,10.6 -2.3,-9.0 m -2.8,11.0 -3.3,-8.4 m -2.0,12.0 -3.0,-8.1 m -7.6,4.5 6.0,7.4 c 1.2,0.4 2.5,0.8 3.9,0.4 1.3,-1.0 0.8,-2.7 0.7,-4.3 1.5,1.3 3.1,0.9 4.6,0 1.5,-0.9 0.6,-2.3 0.7,-3.5 1.8,1.4 2.5,1.2 3.9,0.4 1.4,-0.8 0.7,-1.6 1.1,-2.4 0.6,0.8 0.7,1.7 2.1,1.7 1.3,0.0 1.5,-1.3 2.0,-2.0 1.2,1.0 2.2,2.2 4.0,2.2 1.9,-0.0 2.7,-1.8 3.8,-3.2 1.0,1.6 2.0,3.3 3.9,3.8 2.9,-0.3 3.2,-2.0 4.4,-3.2 0.9,1.7 1.3,3.8 3.3,4.9 1.6,0.3 2.3,-0.4 2.9,-1.1 -0.1,1.3 -0.8,2.7 1.0,3.6 3.2,1.1 3.9,-0.2 5.3,-0.8 -0.1,2.0 0.5,3.3 1.6,4.1 2.1,0.2 3.2,-0.6 4.0,-1.7 l 1.6,-9.0 c -1.9,-2.7 -3.8,-2.3 -5.7,-1.7 -1.0,-2.7 -2.5,-4.8 -5.6,-4.8 -2.3,-2.4 -5.0,-3.2 -8.0,-2.5 -1.5,-3.1 -5.4,-2.8 -9.2,-2.7 -2.8,0.3 -5.9,-1.5 -8.3,1.7 -2.7,-1.3 -4.1,0.0 -5.3,1.6 -2.5,-0.4 -4.5,0.6 -6.1,2.6 -1.7,1.1 -3.9,0.6 -5.0,3.9 -3.4,0.4 -5.9,1.9 -7.6,4.5 z" />
   <path style="fill:#179108;stroke:#cdffca;stroke-width:2" d="m 73.2,97.7 c 2.0,4.2 3.6,8.5 0.7,12.5 M 122.3,96.7 c -3.5,11.4 -0.6,14.6 3.0,18.0 m 12.3,-14.5 c -6.7,1.2 -12.2,3.5 -12.7,10.7 -0.2,5.8 4.3,13.2 7.3,17.9 M 52.1,103.7 c 14.2,-1.1 16.9,1.6 21.8,6.4 -0.4,6.3 -0.7,9.3 -8.1,18.1" />
   <path style="fill:#179108;stroke:#cdffca;stroke-width:2" d="m 197.9,64.4 c -29.9,-19.7 -58.6,-5.8 -83.6,16.1 31.3,5.1 29.0,-15.7 83.6,-16.1 z M 1.7,64.5 C 30.5,44.7 62.6,60.2 86.4,80.9 51.9,85.2 56.4,65.0 1.7,64.5 Z" />
   <path style="fill:#179108;stroke:#cdffca;stroke-width:2" d="m 189.4,115.2 c 0,0 -0.3,-9.5 -2.1,-13.8 -2.2,-5.2 -6.1,-9.8 -10.4,-13.5 -5.3,-4.7 -11.5,-8.5 -18.2,-10.9 -5.5,-2.0 -11.5,-2.6 -17.3,-2.6 -4.6,-0.0 -9.2,0.9 -13.8,1.9 -5.0,1.1 -13.4,4.3 -13.4,4.3 0,0 4.7,6.1 8.5,7.4 3.2,1.1 6.8,0.5 10.2,0.4 3.8,-0.1 7.5,-1.4 11.2,-1.0 3.9,0.4 7.7,1.5 11.5,2.8 5.1,1.7 10.3,3.6 15.0,6.3 3.0,1.7 5.6,4.2 8.1,6.6 3.9,3.7 10.7,12.1 10.7,12.1 z m -179.3,0.1 c 0.7,-19.8 19.8,-54.6 76.3,-34.3 0,0 -5.8,5.8 -9.7,7.2 -33.1,2.5 -41.4,-0.5 -66.6,27.2 z" />
</svg>
