<svg version="1.1" width="200" height="200" viewBox="0 0 200 200"
   xmlns="http://www.w3.org/2000/svg"
   xmlns:svg="http://www.w3.org/2000/svg">
   <path style="fill:#236376;stroke:#cffafd;stroke-width:2;" d="M 147.8,95.9 A 48.7,48.7 0 0 1 101.0,146.5 48.7,48.7 0 0 1 50.4,99.7 48.7,48.7 0 0 1 97.2,49.1 48.7,48.7 0 0 1 147.8,95.9 M 17.0,49.4 c 0,0 -16.2,31.5 -16.2,48.6 0,17.1 16.2,48.6 16.2,48.6 0,0 12.6,-9.5 19.4,-8.1 9.7,1.9 18.0,11.6 21.1,21.1 2.0,6.3 -3.3,19.4 -3.3,19.4 0,0 28.2,15.9 43.8,16.2 17.1,0.3 48.6,-16.2 48.6,-16.2 0,0 -9.5,-12.6 -8.1,-19.4 1.9,-9.7 11.3,-19.1 21.1,-21.1 6.9,-1.4 19.4,8.1 19.4,8.1 0,0 16.2,-31.5 16.2,-48.6 0,-17.1 -16.2,-48.6 -16.2,-48.6 0,0 -12.6,9.5 -19.4,8.1 -9.7,-1.9 -19.1,-11.3 -21.1,-21.1 -1.4,-6.9 8.1,-19.4 8.1,-19.4 0,0 -31.5,-16.2 -48.6,-16.2 -17.1,0 -48.6,16.2 -48.6,16.2 0,0 9.5,12.6 8.1,19.4 C 55.6,46.2 46.2,55.6 36.4,57.5 29.6,58.9 17.0,49.4 17.0,49.4 Z" />
</svg>
