<svg version="1.1" width="200" height="200" viewBox="0 0 200 200"
   xmlns="http://www.w3.org/2000/svg"
   xmlns:svg="http://www.w3.org/2000/svg">
   <path style="fill:#1162b4;stroke:#d4fff9;stroke-width:2" d="M 43.6,69.1 C 14.5,140.0 127.1,195.6 162.5,102.4 c 7.2,-22.9 2.8,-47.3 -3.5,-69.8 37.8,22.9 27.3,69.8 20.0,106.1 L 163.4,133.8 C 112.3,208.3 -4.3,144.7 29.4,63.0 50.8,6.7 133.0,-5.7 157.3,56.3 115.5,11.9 58.1,29.4 43.6,69.1 Z" />
   <path style="fill:#1162b4;stroke:#d4fff9;stroke-width:2" d="M 123.3,43.9 C 151.2,63.4 139.2,112.3 105.9,116.6 68.8,123.7 47.0,70.9 74.2,47.0 37.5,69.8 46.9,134.1 90.1,142.9 122.3,151.3 153.7,120.8 151.2,88.9 150.6,70.4 140.0,52.3 123.3,43.9 Z" />
   <path style="fill:#1162b4;stroke:#d4fff9;stroke-width:2" d="M 74.1,6.0 C 53.9,23.7 31.3,42.0 23.2,68.8 -1.3,80.5 20.8,29.5 63.5,11.2 67.1,9.5 70.6,7.8 74.1,6.0 Z" />
   <path style="fill:#1162b4;stroke:#d4fff9;stroke-width:2" d="m 27.4,131.0 c 14.1,20.3 34.9,36.7 59.5,41.6 3.4,6.7 -0.2,16.7 -8.0,13.2 -23.0,-7.6 -48.7,-22.6 -60.6,-44.6 0.9,-6.7 3.4,-8.8 9.1,-10.2 z" />
   <path style="fill:#1162b4;stroke:#d4fff9;stroke-width:2" d="m 162.8,143.6 c 0.4,-1.7 11.5,-1.3 11.0,8.2 -12.0,14.7 -33.7,27.7 -51.2,33.8 -7.2,-0.7 -7.2,-13.3 -2.6,-15.6 18.8,-3.6 40.8,-18.8 42.8,-26.5 z" />
   <path style="fill:#1162b4;stroke:#d4fff9;stroke-width:2" d="m 125.6,130.0 c 20.3,-3.4 42.3,-4.6 59.4,-17.2 3.2,-4.6 10.1,-7.8 12.4,-0.5 0.7,2.4 6.2,28.5 -71.9,17.7 z M 17.1,98.7 c 8.6,13.9 24.7,19.7 39.5,24.4 3.3,1.3 11.3,3.5 11.3,4.5 C 55.2,129.9 -6.6,126.0 4.9,101.9 6.9,96.5 12.7,96.9 17.1,98.7 Z" />
   <circle style="fill:#1162b4;stroke:#d4fff9;stroke-width:2" cx="100.1" cy="75.7" r="25.7" />
</svg>