<?xml version="1.0" encoding="UTF-8" standalone="no"?>
<!-- Created with Inkscape (http://www.inkscape.org/) -->

<svg
   width="200"
   height="200"
   viewBox="0 0 200 200"
   version="1.1"
   id="svg1"
   xml:space="preserve"
   inkscape:version="1.3.2 (091e20e, 2023-11-25, custom)"
   sodipodi:docname="Memories.svg"
   xmlns:inkscape="http://www.inkscape.org/namespaces/inkscape"
   xmlns:sodipodi="http://sodipodi.sourceforge.net/DTD/sodipodi-0.dtd"
   xmlns="http://www.w3.org/2000/svg"
   xmlns:svg="http://www.w3.org/2000/svg"><sodipodi:namedview
     id="namedview1"
     pagecolor="#ffffff"
     bordercolor="#000000"
     borderopacity="0.25"
     inkscape:showpageshadow="2"
     inkscape:pageopacity="0.0"
     inkscape:pagecheckerboard="0"
     inkscape:deskcolor="#d1d1d1"
     inkscape:document-units="mm"
     inkscape:zoom="4.3366723"
     inkscape:cx="53.958423"
     inkscape:cy="70.906903"
     inkscape:window-width="2560"
     inkscape:window-height="1494"
     inkscape:window-x="-11"
     inkscape:window-y="-11"
     inkscape:window-maximized="1"
     inkscape:current-layer="layer1" /><defs
     id="defs1" /><g
     inkscape:label="Ebene 1"
     inkscape:groupmode="layer"
     id="layer1"><path
       id="path2"
       style="fill:#1818b2;fill-opacity:1;stroke:#16e4c5;stroke-width:2;stroke-linejoin:round;stroke-miterlimit:1;stroke-dasharray:none;stroke-dashoffset:2.26667;stroke-opacity:1;paint-order:fill markers stroke"
       d="M 163.46573,102.64334 A 63.715478,63.715474 0 0 1 100.68414,167.2676 63.715478,63.715474 0 0 1 36.048265,104.49798 63.715478,63.715474 0 0 1 98.805933,39.850487 63.715478,63.715474 0 0 1 163.46503,102.59618 m -21.48998,0.356 A 42.222586,42.222597 0 0 1 100.36648,145.77706 42.222586,42.222597 0 0 1 57.538678,104.17148 42.222586,42.222597 0 0 1 99.141236,61.340741 42.222586,42.222597 0 0 1 141.97488,102.94031"
       fill-rule="evenodd" /><path
       id="path3"
       style="fill:#1818b2;fill-opacity:1;stroke:#16e4c5;stroke-width:2;stroke-linejoin:round;stroke-miterlimit:1;stroke-dasharray:none;stroke-dashoffset:2.26667;stroke-opacity:1;paint-order:fill markers stroke"
       d="M 142.76468,4.2486313 C 120.15803,25.974225 131.50842,45.973577 140.3542,56.335905 c 8.84578,10.36232 18.18118,26.377732 18.66915,44.283655 0.48796,17.90592 -10.02586,31.65461 -19.43463,47.59493 -9.51268,16.11636 -3.94255,36.05893 4.31644,47.53693 1.28682,-15.04749 3.29151,-28.35336 16.98549,-42.21145 15.66188,-15.84957 22.09244,-31.62942 21.30193,-54.410775 C 181.54491,80.4648 175.64818,67.125308 159.20892,50.527166 142.76964,33.929033 143.23637,20.508972 142.76468,4.2486313 Z m -85.047271,0.01353 C 57.239962,20.519998 57.712441,33.939318 41.072135,50.534898 24.43182,67.130474 18.463764,80.467677 17.808188,99.129195 c -0.800182,22.777845 5.709467,38.555915 21.562888,54.403045 13.861444,13.85595 15.889779,27.16047 17.192318,42.20565 8.359999,-11.47623 13.997641,-31.41726 4.368634,-47.53113 C 51.408192,132.26889 40.76764,118.52272 41.261572,100.61956 41.755511,82.716398 51.202925,66.702437 60.156883,56.341703 69.110842,45.98098 80.600521,25.984409 57.717409,4.2621613 Z" /></g></svg>
