<?xml version="1.0" encoding="UTF-8" standalone="no"?>
<svg
   version="1.1"
   id="svg1"
   width="200"
   height="200"
   viewBox="0 0 200 200"
   xmlns="http://www.w3.org/2000/svg"
   xmlns:svg="http://www.w3.org/2000/svg">
  <g id="g1">
    <path
       id="base1"
       style="display:inline;fill:#bc8510;fill-opacity:1;stroke:#f8fa9b;stroke-width:0.868532;stroke-linejoin:round;stroke-miterlimit:1;stroke-dasharray:none;stroke-dashoffset:2.26667;stroke-opacity:1;paint-order:fill markers stroke"
       d="M 99.999997,198.05702 V 5.3171395 c -7.665618,0.3869761 -7.440364,7.3043335 -8.041996,13.5373595 8.263569,7.100708 3.304877,11.0903 1.474367,15.815929 2.610155,5.856302 3.941267,11.683203 -4.28907,17.290297 -0.598949,2.810525 -2.89882,3.43414 -5.227294,4.020999 1.842955,2.133365 3.867851,3.84221 6.835693,3.350829 -5.575297,3.424152 -8.974391,8.078319 -11.66089,13.135267 3.615697,-0.01772 7.394627,-0.398161 9.918459,2.010495 5.537689,5.334921 4.619973,9.875337 2.010503,14.207529 1.606385,30.392566 7.331365,71.145986 1.6084,83.100646 7.191859,2.51581 3.182804,17.94616 7.371828,26.27053 z m 0,0 V 5.3171387 c 7.665613,0.3869743 7.440363,7.3043243 8.041993,13.5373523 -8.263563,7.100707 -3.30488,11.090299 -1.47437,15.815929 -2.61015,5.856301 -3.94126,11.683211 4.28907,17.290297 0.59895,2.810525 2.89882,3.434139 5.2273,4.020997 -1.84296,2.133367 -3.86786,3.842211 -6.8357,3.350831 5.57529,3.424152 8.97439,8.078318 11.66089,13.135266 -3.6157,-0.01772 -7.39463,-0.398161 -9.91845,2.010496 -5.5377,5.334921 -4.61998,9.875336 -2.01052,14.207529 -1.60637,30.392564 -7.33135,71.145984 -1.60839,83.100644 -7.19186,2.51581 -3.1828,17.94616 -7.371823,26.27054 z"
       />
    <path
       id="details1"
       style="display:inline;fill:none;fill-opacity:1;stroke:#f8fa9b;stroke-width:0.868532;stroke-linejoin:round;stroke-miterlimit:1;stroke-dasharray:none;stroke-dashoffset:2.26667;stroke-opacity:1;paint-order:fill markers stroke"
       d="m 108.04199,18.854491 c -2.43907,-0.580197 -4.5771,-1.829371 -8.089371,-0.02466 m 6.615001,15.840595 c -2.82234,0.956557 -4.75927,0.172447 -6.615001,-0.771274 m 10.904071,18.061571 c -3.49591,5.44473 -7.18924,1.512 -10.856693,-1.19147 m 9.248293,8.563298 c -3.64967,-1.972575 -6.36335,-5.40113 -9.248293,-8.563298 m 10.990733,23.709054 c -0.0136,-7.788073 -7.00794,-12.013046 -10.990733,-12.241183 m 7.371823,109.549356 c -2.61857,0.44591 -5.35618,0.32043 -7.371823,3.6604 M 91.958001,18.854499 c 2.439072,-0.580196 4.577102,-1.829371 8.089369,-0.02466 m -6.615002,15.840595 c 2.822347,0.956558 4.759277,0.172447 6.615002,-0.771273 M 89.143298,51.960725 c 3.49591,5.44473 7.189246,1.512001 10.856699,-1.191469 m -9.2483,8.563297 c 3.649675,-1.972574 6.363359,-5.401129 9.2483,-8.563297 M 89.009266,74.478315 c 0.01355,-7.788073 7.007931,-12.013046 10.990731,-12.241183 M 92.628169,171.78649 c 2.61857,0.44591 5.356183,0.32043 7.371828,3.6604"
       />
    <path
       style="display:inline;fill:#bc8510;fill-opacity:1;stroke:#f8fa9b;stroke-width:0.868532;stroke-linejoin:round;stroke-miterlimit:1;stroke-dasharray:none;stroke-dashoffset:2.26667;stroke-opacity:1;paint-order:fill markers stroke"
       d="m 45.716515,186.26209 c 1.186715,-3.1561 2.027454,-6.02913 5.093265,-10.72266 l 70.76957,-86.853586 c -3.16737,-2.654711 -6.38345,-5.271544 -11.1253,-6.70166 0.73442,-2.257488 2.26713,-4.172852 5.4959,-5.361334 2.09508,3.010426 5.42203,5.473357 9.11426,7.773932 l 28.41506,-30.291531 c 0,0 0.83243,-8.049917 3.75293,-10.186522 3.17641,-2.323826 8.94948,-3.25518 11.79494,-0.536137 2.71329,2.592776 1.97302,8.066359 0,11.258796 -1.78575,2.889396 -9.11428,4.557133 -9.11428,4.557133 l -24.66212,32.167986 c 2.06814,2.658058 6.69087,4.923093 10.99073,7.237799 -0.38643,2.562314 -1.95201,3.945464 -3.75294,5.093274 -2.73368,-2.71343 -5.52833,-5.399144 -10.18652,-7.2378 l -76.935098,84.70904 c -2.231037,1.87171 -4.454751,3.74472 -9.650397,5.09327 z"
       id="base2" />
    <path
       id="details2"
       style="display:inline;fill:none;fill-opacity:1;stroke:#f8fa9b;stroke-width:0.868532;stroke-linejoin:round;stroke-miterlimit:1;stroke-dasharray:none;stroke-dashoffset:2.26667;stroke-opacity:1;paint-order:fill markers stroke"
       d="m 153.47927,54.105251 c 1.25864,2.140706 2.39636,4.341869 6.43359,5.09327 m 6.16517,-8.47429 c 0.0283,1.803923 -1.55315,3.287392 -3.53283,3.313657 -1.9797,0.02623 -3.60801,-1.414647 -3.63719,-3.218561 -0.0292,-1.803915 1.55182,-3.287923 3.53149,-3.314847 1.97968,-0.02692 3.60856,1.413422 3.6385,3.217328 m -41.01379,33.674974 c 2.0142,3.666177 4.96845,6.418424 10.18653,6.969725 m -10.18653,-6.969725 c 6.27729,0.685359 11.63645,0.408993 16.58073,-1.370542 2.92506,-5.838419 2.91132,-11.481686 2.81147,-19.302276 4.07933,-0.0962 7.62913,0.515933 13.40271,-1.846655 m -22.60838,29.489198 c 0.83524,-6.075163 1.36312,-12.114472 0.25382,-18.099542 7.21804,0.732129 10.77173,-0.978644 15.22473,-2.089862 0.55066,-4.195555 1.76344,-6.767478 0.70985,-14.896996 m -29.92681,42.893839 10.78968,-2.714166 m -86.585495,89.80231 75.795815,-87.088144 0.0671,-10.488102"
        />
    <path
       style="fill:#bc8510;fill-opacity:1;stroke:#f8fa9b;stroke-width:0.868532;stroke-linejoin:round;stroke-miterlimit:1;stroke-dasharray:none;stroke-dashoffset:2.26667;stroke-opacity:1;paint-order:fill markers stroke"
       d="m 154.00727,187.86236 c -6.22182,-0.0326 -11.36632,-4.53377 -16.07585,-9.64227 L 65.151342,99.274476 c -1.417047,1.456274 -2.555581,2.076994 -3.729936,2.805184 -2.617962,-0.131 -4.37953,-1.28967 -5.737645,-2.932474 -0.204145,-3.083152 2.278858,-6.024861 4.374317,-8.986974 L 45.06261,71.372558 c -1.484724,2.412364 -3.692153,3.6684 -5.779693,5.11626 -2.460025,-3.264872 -3.049437,-6.983229 -1.340333,-11.258803 -0.42007,-4.972249 1.853782,-7.422534 7.371831,-6.835693 5.251052,-0.776337 8.964943,-0.201829 10.052497,2.680662 -1.379206,2.114077 -2.959744,3.993258 -5.093265,5.227303 l 17.165785,16.716301 c 2.183237,-2.339755 4.460938,-3.447819 7.527467,-4.651908 2.875718,1.004421 4.313726,1.982467 4.792677,5.005218 -0.640568,1.522667 -2.275393,2.382504 -3.617504,3.437484 l 69.563268,83.636778 c 4.26331,5.12585 8.26407,10.80914 8.30193,17.4162 z"
       id="base3" />
    <path
       id="details3"
       style="fill:none;fill-opacity:1;stroke:#f8fa9b;stroke-width:0.868532;stroke-linejoin:round;stroke-miterlimit:1;stroke-dasharray:none;stroke-dashoffset:2.26667;stroke-opacity:1;paint-order:fill markers stroke"
       d="m 72.979058,104.39814 c 1.445541,-1.58993 2.791307,-1.93268 4.032136,-0.96371 21.860364,25.15829 44.164776,48.9844 66.419296,72.96021 -21.06151,-25.14674 -42.47487,-50.24323 -64.960701,-75.1865 -0.454008,-1.378154 -0.850467,-2.752344 1.598298,-3.930308 m -6.297839,-7.524353 2.371824,-2.944097 m -10.99073,12.465094 1.22639,-1.922888 m 0,0 73.072168,78.000522 c 0.43522,0.46459 2.63783,0.88577 3.98059,1.04253 0.056,-1.38649 0.45687,-2.86855 -0.47388,-3.98058 L 73.770248,89.753479 Z M 78.982917,80.9075 C 71.281489,87.241806 64.80686,94.337566 58.932724,101.80605 m -1.794251,-1.32686 C 62.850788,93.189715 68.85449,85.948797 77.182178,79.095222 m -9.742746,3.923366 c 0.70996,3.304208 -4.251516,8.847588 -7.381354,7.141624 m 5.390505,-9.146065 c -1.194307,4.714408 -3.387118,7.218871 -6.428147,7.846012 m 3.737693,-10.400294 c -0.507527,3.5068 -2.724701,6.014139 -6.008863,7.897724 M 59.28434,75.289662 c -0.570375,4.295689 -2.975145,5.839791 -5.798762,6.755623 m 3.26835,-9.432403 c -1.278109,2.435875 -3.387317,4.376184 -5.808084,6.130714 m 3.06364,-8.954033 c -0.991181,2.702116 -2.386132,5.000468 -5.505867,5.574029 m 2.550082,-8.008566 c -0.675007,2.648075 -2.277813,4.36835 -5.100162,4.869084 M 52.95587,58.696841 c -3.704562,6.41237 -9.342514,11.071192 -14.915672,15.788786 M 50.744721,58.165012 c -3.575049,6.043722 -8.622082,9.833474 -13.583748,13.753939"
       />
  </g>
</svg>
