<svg version="1.1" width="200" height="200" viewBox="0 0 200 200"
   xmlns="http://www.w3.org/2000/svg"
   xmlns:svg="http://www.w3.org/2000/svg">
   <path style="fill:none;stroke:#e6c2a4;stroke-width:4" d="m 148.1,149.8 23.7,12.7 z m -12.6,-3.2 a 6.6,6.6 0 0 0 6.4,6.9 6.6,6.6 0 0 0 6.9,-6.4 6.6,6.6 0 0 0 -6.4,-6.9 6.6,6.6 0 0 0 -6.9,6.4 m -28.5,2.9 c 0,0 6.2,-2.3 10.3,-4.2 4.1,-1.8 10.8,-4.8 14.0,-7.0 3.2,-2.2 9.5,-9.2 13.8,-13.9 6.7,-2.1 11.5,-6.2 13.3,-13.2 l -17.7,1.5 6.4,-7.9 -6.4,7.8 -20.7,2.2 20.7,-2.3 c 1.1,3.2 0.7,4.9 4.8,11.3 -5.9,2.5 -10.5,3.6 -19.2,9.1 -8.7,5.5 -13.3,11.0 -19.3,16.7 z m -53.8,0.3 -23.7,12.7 z m 47.0,46.6 -27.5,-30.6 z m 30.4,-31.0 -30.4,31.0 z M 100.2,154.8 v 41.7 z m 71.5,-24.0 A 71.1,36.6 0 0 1 103.4,168.8 71.1,36.6 0 0 1 29.6,133.6 71.1,36.6 0 0 1 97.9,95.6 71.1,36.6 0 0 1 171.7,130.8 m -105.9,16.0 a 6.6,6.6 0 0 1 -6.4,6.9 6.6,6.6 0 0 1 -6.9,-6.4 6.6,6.6 0 0 1 6.4,-6.9 6.6,6.6 0 0 1 6.9,6.4 m 41.2,2.7 a 6.7,5.1 0 0 1 -6.4,5.3 6.7,5.1 0 0 1 -6.9,-4.9 6.7,5.1 0 0 1 6.4,-5.3 6.7,5.1 0 0 1 6.9,4.9 m -13.3,-0.6 c 0,0 -5.7,-1.9 -9.7,-3.6 -4.0,-1.7 -10.8,-4.8 -14.0,-7.0 -3.2,-2.2 -9.5,-9.2 -13.8,-13.9 -6.7,-2.1 -11.5,-6.2 -13.3,-13.2 l 17.7,1.5 -6.4,-7.9 6.4,7.8 20.7,2.2 -20.7,-2.3 c -1.1,3.2 -0.7,4.9 -4.8,11.3 5.9,2.5 10.5,3.6 19.2,9.1 8.7,5.5 12.7,10.4 18.7,16.1 z" />
   <path style="fill:#994800;stroke:#e6c2a4;stroke-width:2" d="M 100.9,135.4 93.6,123.7 c 1.9,-1.9 2.1,-5.0 1.5,-8.7 L 86.3,99.0 89.3,91.7 77.6,74.3 c 3.1,-3.8 11.1,-5.2 8.7,-11.6 -3.6,-2.1 -12.7,-0.1 -20.4,1.5 -7.7,1.6 -16.8,3.0 -23.3,0 C 36.2,61.1 32.2,56.5 31.0,49.5 29.9,42.6 32.9,33.7 38.3,27.7 43.7,21.7 48.2,18.5 55.8,14.6 63.4,10.7 72.5,8.4 80.5,5.9 72.4,11.1 65.1,15.0 56.5,21.9 47.9,28.7 45.7,34.2 45.6,39.3 c -0.1,5.2 0.1,8.8 5.1,11.6 5.0,2.9 14.1,1.8 21.1,1.5 C 77.8,51.4 82.5,49.3 86.3,46.6 L 101.0,58.4 115.4,46.6 c 4.6,2.5 7.1,4.7 14.6,5.8 7.4,1.1 17.2,0.7 21.1,-1.5 3.9,-2.1 6.8,-4.6 5.1,-11.6 -1.7,-7.0 -3.5,-12.0 -10.9,-17.5 -7.5,-5.4 -16.0,-10.7 -24.0,-16.0 8.3,2.8 17.1,4.7 24.7,8.7 7.6,4.1 12.5,7.4 17.5,13.1 4.9,5.7 7.9,14.3 7.3,21.8 -0.7,7.5 -5.9,11.4 -11.6,14.6 -5.8,3.1 -15.6,1.8 -23.3,0 -7.7,-1.8 -13.6,-1.7 -20.4,-1.5 0.1,5.2 2.9,9.2 8.7,11.6 l -11.6,17.5 2.9,7.3 -8.7,16.0 c -0.2,2.8 -0.9,5.5 1.5,8.7 z" />
</svg>
