<svg version="1.1" width="200" height="200" viewBox="0 0 200 200"
   xmlns="http://www.w3.org/2000/svg"
   xmlns:svg="http://www.w3.org/2000/svg">
   <path style="fill:#999000;stroke:#ffffcc;stroke-width:2" d="m 17.7,150.8 c 0,0 11.5,-12.3 15.1,-20.0 C 38.4,118.5 32.2,78.8 35.9,63.2 40.5,43.8 47.8,51.0 52.9,7.5 53.0,2.3 57.0,2.7 60.8,2.8 77.7,12.8 72.0,29.5 67.8,44.6 66.2,52.3 66.5,67.6 66.5,67.6 108.0,15.2 117.1,10.2 132.2,5.7 c 8.1,-1.6 13.3,8.1 10.3,11.3 -6.4,5.5 -44.1,43.6 -47.7,52.6 -1.5,3.7 -1.0,9.9 -1.0,9.9 18.1,-26.0 43.6,-43.4 71.4,-57.9 4.8,1.0 10.7,-0.7 11.0,11.6 0,0 -1.5,4.2 -2.8,5.9 -17.0,21.9 -23.6,7.9 -60.7,61.7 30.0,-15.0 35.8,-18.1 64.8,-41.0 10.2,-2.2 13.9,5.7 12.6,11.1 l -34.1,33.2 c -6.2,4.7 -19.7,12.4 -19.7,12.4 v 7.8 c 0,0 13.7,-5.2 20.2,-8.3 8.3,-4.3 16.3,-9.1 24.4,-13.7 5.4,0.5 9.2,-2.9 10.4,10.9 -16.0,12.7 -21.8,16.6 -42.4,26.8 0,0 -11.5,4.9 -16.4,8.6 -36.5,38.8 -35.4,17.2 -69.5,49.3" />
   <path style="fill:#999000;stroke:#ffffcc;stroke-width:2" d="m 136.8,124.6 c -2.5,0.7 -7.6,0.2 -9.9,3.2 5.5,5.7 9.5,12.5 12.2,18.1 3.6,-0.8 6.8,-3.1 9.9,-5.3 -3.9,-5.6 -6.7,-10.4 -12.3,-16.1 z M 120.8,96.2 c -4.5,1.4 -7.6,4.2 -10.7,7.2 7.2,7.8 12.3,13.8 16.1,22.8 3.3,-2.3 6.8,-5.3 9.8,-9.5 -3.4,-8.7 -9.4,-12.9 -15.2,-20.5 z m -0.4,-6.6 c -6.3,-5.5 -13.1,-10.8 -21.1,-15.8 -2.0,2.4 -3.5,5.5 -4.6,9.1 5.7,4.5 11.4,9.7 17.1,16.5 3.2,-2.0 6.1,-5.4 8.6,-9.8 z M 95.9,68.3 c 0.2,4.7 -0.6,8.6 -1.9,12.3 -8.5,-5.3 -16.8,-11.1 -25.7,-14.8 1.8,-4.1 4.5,-7.8 7.8,-11.3 6.8,4.1 13.5,8.5 19.9,13.8 z" />
   <path style="fill:#999000;stroke:#ffffcc;stroke-width:2" d="m 133.0,136.2 c 3.6,-5.4 15.1,-5.6 17.3,1.4 1.2,3.8 -2.9,6.3 -4.9,7.3 -3.1,1.5 -9.4,1.9 -11.5,0.2 -2.0,-1.6 -2.7,-6.3 -0.9,-8.9 z m -21.2,-27.1 c 3.8,-5.3 18.1,-11.0 22.0,-1.3 1.0,2.5 0.6,7.2 -0.9,9.8 -1.7,3.0 -5.5,6.2 -9.7,7.4 -10.4,2.9 -18.6,-6.0 -11.4,-16.0 z M 82.6,86.7 c 2.5,5.0 6.3,9.0 11.3,12.4 6.6,-3.2 11.8,-9.2 16.2,-16.7 -1.6,-4.9 -5.7,-8.8 -12.2,-11.8 -5.7,4.6 -11.5,9.0 -15.3,16.1 z M 68.2,70.8 c -2.7,-1.9 -2.5,-10.9 -1.0,-13.8 2.4,-4.4 8.5,-7.0 12.0,-6.0 3.6,1.3 3.7,4.6 3.1,7.8 -0.5,4.0 -2.9,6.6 -5.9,9.1 -2.2,2.0 -5.2,4.2 -8.2,2.9 z" />
</svg>
