<svg version="1.1" width="200" height="200" viewBox="0 0 200 200"
   xmlns="http://www.w3.org/2000/svg"
   xmlns:svg="http://www.w3.org/2000/svg">
   <path style="fill:#996800;stroke:#fff0cc;stroke-width:2" d="m 46.5,45.0 48.3,4.3 V 191.5 l -48.3,4.7 z m 109.1,1e-6 -48.3,4.3 V 191.5 l 48.3,4.7 z M 25.4,196.2 24.5,32.8 H 20.0 L 13.0,25.8 H 38.2 L 35.0,20.8 c 0,0 5.3,0.2 8.7,-0.5 C 62.8,16.4 62.3,5.4 95.7,4.0 c 5.1,-0.2 12.9,-0.5 17.8,0 14.3,0.2 21.1,10.9 46.8,15.2 4.4,0.7 10.2,0.9 10.2,0.9 l -4.7,5.6 h 24.0 l -8.6,7.0 h -6.1 V 196.2 H 161.7 V 41.5 H 41.2 V 196.2 Z" />
   <path style="fill:#996800;stroke:#fff0cc;stroke-width:2" d="m 53.9,25.8 c 15.5,-4.8 20.8,-9.6 27.5,-10.2 12.4,-1.0 25.0,-1.3 37.6,-0.5 5.3,0.3 6.1,3.0 24.1,10.7 m -105.0,0 H 165.8 m 9.3,7.0 H 24.5"/>
</svg>
