<svg version="1.1" width="200" height="200" viewBox="0 0 200 200"
   xmlns="http://www.w3.org/2000/svg"
   xmlns:svg="http://www.w3.org/2000/svg">
   <path style="fill:none;stroke:#fffdcc;stroke-width:6" d="m 115.0,28.0 c 11.6,2.3 29.4,10.5 31.2,38.7 4.2,63.6 3.3,96.1 -35.2,106.4 M 84.5,28.0 C 73.0,30.3 55.2,38.5 53.3,66.7 49.0,131.1 49.5,161.2 88.5,173.0" />
   <path style="fill:#997d00;stroke:#fffdcc;stroke-width:2" d="m 88.8,68.1 -5.0,-4.8 C 80.6,51.8 87.8,45.1 99.2,44.9 117.4,44.8 116.7,56.0 116.1,59.2 c -0.6,3.2 -4.0,9.0 -4.0,9.0 z" />
   <path style="fill:#997d00;stroke:#fffdcc;stroke-width:2" d="M 3.1,69.9 H 195.7 c 0.8,8.6 -2.7,11.1 -5.9,13.9 -2.1,4.1 1.0,7.7 -11.4,12.7 -1.3,4.3 -3.8,8.5 -10.8,12.8 H 33.2 C 25.0,106.8 21.8,102.9 21.8,98.0 10.8,94.7 9.2,89.3 8.5,83.5 4.5,80.4 1.0,76.9 3.1,69.9 Z" />
   <path style="fill:#997d00;stroke:#fffdcc;stroke-width:2" d="m 99.9,96.5 -0.3,65.6 M 68.1,76.2 C 62.7,93.3 45.1,159.7 99.6,162.1 158.8,164.7 133.4,81.1 131.8,76.3 Z" />
   <path style="fill:#997d00;stroke:#fffdcc;stroke-width:2" d="M 65.0,85.7 C 65.4,72.4 67.5,68.5 77.8,60.7 h 44.1 c 8.6,6.6 11.6,10.0 13.1,25.7 0,0 -12.5,-2.0 -18.5,-0.3 -6.3,1.8 -16.6,10.5 -16.6,10.5 0,0 -9.5,-8.3 -15.4,-10.2 -6.2,-2.0 -19.5,-0.7 -19.5,-0.7 z" />
</svg>
