<svg version="1.1" id="svg1" width="200" height="200" viewBox="0 0 200 200"
   xmlns="http://www.w3.org/2000/svg"
   xmlns:svg="http://www.w3.org/2000/svg">
   <path style="fill:#7f1a1a;stroke:#f3d7d7;stroke-width:2" d="m 124.7,59.0 c 0.5,13.1 -9.7,24.1 -22.8,24.6 C 88.8,84.1 77.8,73.9 77.3,60.8 76.8,47.7 87.0,36.7 100.1,36.1 c 13.1,-0.5 24.1,9.7 24.6,22.8 M 64.5,180.4 c 23.2,14.5 50.3,10.1 74.6,0.5 C 101.4,147.1 119.9,100.0 140.3,68.0 177.8,70.7 189.4,92.7 184.7,151.9 226.4,65.5 154.7,10.4 102.5,10.6 50.6,10.8 -27.7,51.9 15.5,153.0 14.1,112.5 16.6,69.4 62.2,67.0 80.3,87.5 101.1,153.0 64.5,180.4 Z" />
</svg>
