<svg width="200" height="200" viewBox="0 0 200 200" version="1.1"
   xmlns="http://www.w3.org/2000/svg"
   xmlns:svg="http://www.w3.org/2000/svg">
   <path style="fill:#480099;stroke:none" d="m 99.2,100.3 h 97.4 l -67.7,14.8 19.0,33.9 -33.9,-19.2 -14.7,67.9 z" />
   <path style="fill:#996200;stroke:none" d="M 99.2,3.0 V 100.3 H 196.5 L 128.3,85.8 147.9,51.7 114.0,70.7 Z" />
   <path style="fill:#990075;stroke:none" d="M 1.8,100.3 H 99.2 v 97.4 l -14.6,-68.1 -34.0,19.4 19.8,-34.2 z" />
   <path style="fill:#159900;stroke:none" d="M 1.8,100.3 H 99.2 V 3.0 L 84.4,70.8 50.5,51.7 70.1,85.8 Z"/>
   <path style="fill:none;stroke:#e5e5e5;stroke-width:2" d="M 99.2,3.0 V 197.7 M 50.5,149.0 147.9,51.7 m 0,97.4 L 50.5,51.7 M 1.8,100.3 H 196.5 M 50.5,51.7 84.4,70.8 99.2,3.0 114.0,70.7 l 33.8,-19.0 -19.5,34.1 68.2,14.6 -67.7,14.8 19.0,33.9 -33.9,-19.2 -14.7,67.9 -14.6,-68.1 -34.0,19.4 19.8,-34.2 L 1.8,100.3 70.1,85.8 Z" />
</svg>