<svg version="1.1" width="200" height="200" viewBox="0 0 200 200"
   xmlns="http://www.w3.org/2000/svg"
   xmlns:svg="http://www.w3.org/2000/svg">
   <path style="fill:#999200;stroke:#fffdcb;stroke-width:2" d="M 99.3,79.8 37.6,195.3 H 162.8 Z m 0,17.2 47.6,88.5 H 53.2 Z"/>
   <path style="fill:#999200;stroke:#fffdcb;stroke-width:2" d="m 99.3,3.8 c 0,0 -5.5,12.3 -6.5,18.9 -2.5,15.9 4.7,14.2 -1.5,39.1 l -2.8,0.4 -0.0,-6.6 c 0,-45.7 -27.9,-38.0 -30.0,-26.1 -1.5,8.5 7.0,12.5 10.9,10.3 3.7,-3.0 0.5,-9.5 -3.1,-6.1 -5.3,-0.1 -1.8,-12.9 8.1,-3.8 5.1,4.5 7.2,8.6 7.6,33.6 -29.1,8.5 -47.6,37.0 -43.5,67.1 4.1,30.0 29.6,52.6 59.9,52.9 30.3,0.4 56.3,-21.5 61.2,-51.5 4.8,-29.9 -13.0,-58.9 -41.9,-68.1 -2.6,-8.8 1.6,-48.0 18.2,-35.4 1.3,1.7 0.4,5.2 -1.4,5.4 -6.6,-4.5 -10.9,2.7 -4.6,5.7 11.7,5.5 18.7,-15.9 2.9,-19.5 -22.6,-2.6 -21.7,26.9 -21.8,42.3 l -2.8,-0.7 C 103.5,32.5 109.3,39.5 106.1,22.2 104.9,15.8 99.3,3.8 99.3,3.8 Z M 97.2,70.1 C 126.4,69.0 151.0,91.8 152.2,121.0 l 0.0,0.0 c 1.1,29.2 -21.6,53.8 -50.9,54.9 C 72.1,177.1 47.5,154.3 46.4,125.1 45.2,95.9 68.0,71.3 97.2,70.1 Z" />
</svg>
