<svg version="1.1" width="200" height="200" viewBox="0 0 200 200"
   xmlns="http://www.w3.org/2000/svg"
   xmlns:svg="http://www.w3.org/2000/svg">
   <path style="fill:#702f29;stroke:#ffcdcc;stroke-width:1" d="m 134.3,136.5 c 12.9,-16.1 25.0,-14.2 26.1,-13.9 11.0,2.2 14.2,15.0 -0.5,33.1 -3.1,3.9 -15.5,17.9 -27.8,14.0 -10.3,-3.3 -8.7,-19.5 2.2,-33.2 z m 23.5,-25.9 4.9,4.3 c -11.6,0.6 -19.2,1.6 -29.3,13.7 l -3.6,-3.1 c -4.3,1.7 -5.9,4.4 -6.7,7.4 l 2.7,3.6 c -8.4,14.1 -8.6,18.0 -8.0,27.3 l -5.2,-5.0 c -3.1,0.6 -4.2,2.9 -5.2,5.3 l 24.5,22.5 c 2.8,-0.5 5.7,-0.8 5.6,-5.1 l -6.1,-4.7 c 15.3,-0.4 20.6,-3.3 29.5,-12.1 l 4.1,3.5 c 4.2,-1.7 6.7,-4.3 6.7,-8.3 l -3.8,-4.3 c 10.0,-14.1 8.9,-22.1 7.3,-31.5 l 6.5,6.5 c 4.3,-0.5 5.9,-2.9 6.8,-5.9 L 165.1,104.1 c -3.0,0.8 -6.2,1.2 -7.3,6.5 z"/>
   <path style="fill:#448811;stroke:#ffc299;stroke-width:1" d="M 135.5,75 158,87 175,76 164,94 l -16.9,4 -8,-11 z" />
   <path style="fill:#448811;stroke:#e8ffcc;stroke-width:1" d="m 136.9,62.7 8.6,-20.4 M 99.2,21.1 c 0,0 3.4,4.7 4.6,7.3 5.1,15.1 -10.3,18.6 4,30.9 3,2.6 9.2,1.1 15,-2.2 0,0 -0.1,6 0.9,8.8 0.7,1.8 3.2,4.8 3.2,4.8 l 2.6,4 -7.4,-0.2 c 1.3,8.5 12.9,13.9 13.8,17 0.9,3.1 -1.8,-1.1 -0.1,13.9 0,0 2.2,-6.4 5,-7.7 1.9,-0.9 6.4,0.7 6.4,0.7 14.6,11.1 18.4,-1.6 26.8,-6 5.9,-2.4 19.2,-0.1 19.2,-0.1 4.2,-2.3 2,-5.2 -1,-7.6 L 179.4,85 c 3.8,-9.5 5.6,-11.6 10.5,-16.3 l -1.5,-3.3 c -8,1.9 -11.5,3.2 -18.2,14.8 2.5,-8.6 1.8,-10.7 0.6,-15 15.4,-14.6 -5.2,-44.4 -25.3,-22.9 0,0 0.8,-6.9 0.1,-10.3 -0.6,-2.7 -2.7,-9.8 -9.8,-13.6 -9.3,-5 -22.2,-3.9 -22.1,12.7 0.1,5 3.9,14.7 1.5,16.1 -1.2,0.7 -3.6,-0.7 -3.7,-2.1 -1,-12.9 6.9,-21.9 -12.3,-23.9 z M 159,70.9 c 2.96746,-2.198439 7.9,-3.6 11.8,-5.7 m -0.6,15 c 0,0 -3.2,5.6 -5,8 -1.4,1.9 -2.7,3.9 -4.6,5.1 -2.2,1.5 -5.1,1.7 -7.6,2.6 -2,0.7 -5.9,2.4 -5.9,2.4 m 5.81674,-13.009812 c 0,0 -2.21674,2.309812 -3.81674,2.709812 -13.4,3 -1,-14.2 -19.6,-13.3 m -4,-31.6 c -0.6,-3.7 -3.6,-11.2 2.5,-11.4 5.7,3.1 -0.1,11.2 -2,15.3 l -3.3,10 c 0,0 2.9,-9.1 2.9,-13.9 z m 33.6,36.7 c -1.1,2.5 -6.18326,5.490188 -6.18326,5.490188 C 151.71674,77.190188 153.3,75 159,70.9 c 0,0 1.3,6.1 0.1,8.9 z m -15,-12.7 c 4.2,-5.6 3.5,-26 15.6,-17.3 2.1,6.5 -3.7,11.1 -8.9,13.4 l -6.7,3.9 -5.3,9.8 z" />
   <path style="fill:#1c427d;stroke:#d0f6f9;stroke-width:1" d="M 41.4,92.8 C 48.1,80.4 53.7,62.0 59.1,48.8 M 32.9,98.6 C 41.1,85.3 47.6,64.5 53.6,49.8 M 24.1,105.9 C 32.3,90.3 40.6,67.2 47.6,50.9 M 16.7,109.5 C 25.2,93.7 33.8,69.2 41.0,52.1 m -6.7,1.2 C 26.8,71.0 17.5,96.5 9.7,113.3 M 27.7,54.5 C 21.6,72.3 11.1,96.6 3.5,113.8 c -0.8,1.8 -1.9,4.9 -1.4,5.5 3.1,-0.3 5.5,-3.1 7.6,-6.0 -0.3,1.2 -0.8,2.4 -0.2,3.3 3.3,-1.6 5.0,-4.4 7.3,-7.1 -0.4,1.5 -0.9,3.1 0.1,3.4 3.2,-1.2 5.1,-4.3 7.3,-7.0 -0.1,1.2 0.1,2.2 1.2,2.9 3.2,-2.1 5.1,-6.7 7.6,-10.1 -0.5,1.7 -0.1,3.1 0.8,3.6 4.9,-2.7 4.8,-5.9 7.7,-9.4 -0.5,2.8 -0.7,5.1 0.3,5.3 4.4,-1.8 5.1,-3.9 6.2,-6.6 l 17.4,-43.8 z" />
   <path style="fill:#1c427d;stroke:#d0f6f9;stroke-width:1" d="m 70.4,40.2 c 4.6,3.1 8.4,7 14,9.1 M 65.2,43.1 c 5.7,3.7 10.5,7.9 18.2,10.6 M 59.9,45.9 c 6.4,4.1 12,9.2 19.9,11.5 M 48,52.1 c 2.1,2.9 4.793273,5.260617 6.743137,8.094646 M 53.2,49.4 c 6.1,4.3 10.1,9.9 18.6,12.5 M 43.6,54.3 c 2.8,4.9 4.8,10.2 10.8,10.8 l 0.343137,-4.905354 C 55.843137,61.694646 57.1,62.8 58.7,63.9 c 3.6,0.4 7.1,1.1 10.9,0.7 1.3,-0.6 1.6,-1.8 2.2,-2.9 2.5,0.1 5,0.3 7.5,-0.7 0.6,-1.2 0.4,-2.4 0.4,-3.7 2.2,0.4 4.5,0.3 6.7,0 0.2,-1.5 -1.7,-2.5 -3.2,-3.7 2,-0.1 3.1,-0.4 4.5,-1.1 -0.6,-1 -1.8,-2.4 -3.5,-3.3 2.2,-0.1 4.2,0.5 6.7,-1.1 l -15,-10.5 z" />
   <path style="fill:#1c427d;stroke:#d0f6f9;stroke-width:1" d="m 91.6,32.6 -4.4,-4.3 m 0.3,7.3 -5.1,-5.5 M 81.8,40 75.4,32.7 m 2.1,9.6 -8.2,-7.3 m 1.5,10.6 -7.6,-8.3 M 65.7,48 58.9,38.9 m 1,12.8 -5.5,-11.1 M 53.2,52.4 48.5,42.7 M 48.3,56.2 43.6,44.5 M 44.8,60.8 40.3,45.5 M 38.2,61.4 37.8,46.6 M 31.6,61.7 33.9,48 m -6.2,8.3 -1.8,6.8 c 0.1,1.4 0.1,2.9 1.7,3.6 1.8,-1 2.8,-3.3 4.1,-5.1 0.8,1.4 0.6,3.2 2.6,4.1 1.7,-1 2.6,-2.9 3.9,-4.5 1.4,1.8 1.7,4.2 4.4,5.2 1.5,-1.5 1.6,-3.8 2.3,-5.8 1,0.3 1.9,0.7 3.4,0.3 1,-1.4 0.2,-3 0,-4.7 1.5,1.3 3.2,1 4.9,1.2 0.9,-1.4 0.3,-3.1 0,-5 1.3,0.8 2.1,2.6 5.5,3 1.2,-0.8 1,-2.3 1.2,-3.7 1.8,0.5 3.5,1.3 5.5,0.8 0.5,-1 0.6,-2.5 0.3,-4.5 1.9,1.2 3.7,0.8 5.5,0.7 0,-1 0.2,-1.9 -0.4,-3.1 2.2,1.1 4.7,1.3 7.2,1.1 0.3,-1.5 0,-2.9 -0.5,-4.4 1.3,0.3 2.4,0.9 3.9,0.5 0.6,-0.6 0.5,-1.7 0.4,-2.8 2.1,0.5 4.2,1.3 6.4,1 0.4,-2.2 -0.3,-3.7 -0.7,-5.4 1.9,0.9 3.9,1.2 5.8,1.1 0.2,-1.5 -0.8,-2.8 -1.7,-4.1 2,0.4 3.9,0.5 5.7,0.6 -1,-2.7 -3.3,-4.7 -4.9,-7 L 33.9,48.1 Z" />
   <path style="fill:#1c427d;stroke:#d0f6f9;stroke-width:1" d="M 68.2,39.8 66,34.1 m -2.9,7.4 -1.5,-6.2 M 59,44.4 56.5,37.1 m -2.7,10 C 53.4,44.3 52.7,42.4 52,39.7 m -3.4,10.2 -1.7,-8.1 m -3.1,9.8 c 0.6,-2.8 -0.6,-6 -1,-8.9 M 37,52.9 c 0.1,2.9 0.4,3.8 2.4,5 3.2,-2.1 3,-4.2 4.5,-6.3 0.6,0.9 0.9,1.9 2.6,1.6 1.3,-0.3 1.8,-1.7 2.2,-3.3 1,0.9 2,1.7 3.4,1.8 1.9,-1.8 1.2,-3.1 1.7,-4.6 1.1,1.1 2.4,1.8 4,1.7 1.4,-0.8 1.2,-2.6 1.2,-4.4 1,0.2 1.8,1.2 3,0.6 1.1,-0.6 0.8,-2.3 1.1,-3.5 1.2,1.1 2.4,2.6 4,1.9 0.8,-1 0.8,-2.4 1.1,-3.6 1.7,1 3.5,1.7 5.9,1.1 0.4,-1.6 0.7,-3.2 -0.1,-5.6 -0.5,-1 -1.7,-1.8 -2.6,-2.7 l -13.7,3.7 c 0,0 -8.3,5.5 -13.6,6 -5.3,0.5 -7.3,7.7 -7.1,10.6 z" />
   <path style="fill:#1c427d;stroke:#d0f6f9;stroke-width:1" d="m 91,19.1 c 2.8,2.7 5.9,5.2 6.8,8.4 -2.6,0.6 -5,0.7 -7.1,-1.2 m -5.2,2.2 -1,-7.1 m -3.9,8.7 -0.6,-7 m -3.5,9.5 -0.2,-8.9 m -4.8,10 -0.3,-9.3 m -5.5,10 -1.1,-9 M 59.9,35.7 59.8,27.6 M 55.6,40.3 54.9,29.8 m -4,12.4 -0.7,-9.5 M 45.1,44.4 44.8,36 m -4.1,9.4 -0.2,-6.8 M 91,19.1 c -0.4,3.8 0.3,7.6 -1.1,11.5 -2.7,0.4 -3.3,-1.2 -4.4,-2.1 -0.1,1.7 0.7,3.8 -0.8,5 -2.1,0 -2.9,-2.1 -4.1,-3.4 -0.1,1.8 0.9,4 -0.9,5.3 -1.4,-0.3 -2.4,-1.5 -3.2,-2.8 -0.6,1.1 -0.2,2.2 -1.7,3.2 -1.5,0.2 -2.4,-1 -3.3,-2.1 -0.7,1.2 -1,3 -2.3,3.4 -2.1,-0.1 -2.5,-1.8 -3.5,-2.7 -0.9,1.3 -0.5,3.5 -2.5,4 -2.1,0.1 -2.3,-1.9 -3.3,-2.7 -0.5,1.7 0.1,4.2 -1.5,5.2 -1.2,0.7 -2.1,-0.2 -2.8,-0.6 -0.9,1.2 -0.4,3 -2.4,3.8 -1,0.6 -1.7,-1.1 -2.3,-1.9 -1.1,1.5 -1,4.1 -2.9,4.8 -1.9,0.2 -2,-1.7 -2.9,-2.6 -0.8,1.3 -0.38602,3.207263 -1.98602,3.907263 C 42.41398,48.307263 41.4,47.1 40.7,45.4 38.5,48.8 38,52.6 34.4,55.7 32.5,53.9 32.4,51 31.7,48.5 l 7.4,-8.7 16.2,-9.9 9.7,-4.4 15.4,-2.3 z"/>
   <path style="fill:#1c427d;stroke:#d0f6f9;stroke-width:1" d="M 16.2,76.6 C 24.2,41.9 47.4,26.5 69.2,21.7 80.5,21.8 89.1,17.0 98.2,10.6 c 0,0 -0.1,4.9 -1.5,6.7 -2.7,3.8 -7.7,5.5 -12.0,7.1 -4.5,1.7 -9.5,1.5 -14.2,2.6 -4.9,1.2 -9.8,2.2 -14.4,4.3 -5.6,2.5 -10.9,5.7 -15.5,9.7 -3.5,3.0 -6.5,6.5 -9.0,10.3 -4.6,8.9 -8.2,18.2 -15.4,25.4 z" />
   <path style="fill:#979900;stroke:#ffffca;stroke-width:1" d="m 70.3,148.6 c -4.7,1.3 -9.3,4.2 -9.9,4.5 m -2.9,-4.7 c 2.3,-1.5 5.5,-2.8 8.9,-3.8 m -37.2,-37.4 2.8,-1.5 0.5,3.2 c 6.5,-0.4 10.9,0.2 19.3,13.2 -8.1,0.1 -10.3,-1.0 -15.7,-4.0 l 2.3,5.1 c 6.9,-1.2 12.1,1.1 17.4,5.5 -4.7,2.0 -9.6,1.6 -14.5,0.6 l 2.5,4.0 c 9.4,-3.3 12.6,-3.5 23.5,1.2 -6.5,4.9 -10.0,5.5 -18.8,5.0 l 3.2,3.2 c 0,0 6.2,-2.2 9.0,-2.9 5.5,-2.0 9.1,-0.7 14.1,1.4 -2.3,2.2 -5.3,2.9 -8.4,3.5 2.1,0.3 4.5,0.2 5.8,1.4 -0.3,1.3 -1.0,2.0 -1.9,2.6 6.6,-1.7 7.2,-0.5 10.3,-0.4 -0.7,2.4 -11.1,9.7 -13.3,10.9 -5.7,3.2 -2.7,15.8 -5.9,17.1 -3.5,-5.9 -3.1,-13.1 -4.4,-19.7 l -3.2,-4.2 c 1.6,14.9 2.2,17.8 7.3,27.9 -12.0,-4.7 -22.1,-11.7 -12.6,-32.6 l -3.2,-4.1 c -3.0,13.8 -3.2,16.6 -3.1,25.6 -15.8,-9.0 -6.5,-26.5 -3.0,-32.1 l -2.8,-5.3 c -0.8,11.6 -2.4,4.1 -10.0,20.9 -5.6,-10.7 -5.5,-14.6 6.6,-27.8 l -1.3,-3.5 c -6.8,9.9 -8.9,11.7 -14.5,16.4 -2.5,-12.7 -1.6,-15.6 11.9,-27.7 z" />
   <path style="fill:#979900;stroke:#ffffca;stroke-width:1" d="M 72.8,182.1 C 60.0,176.8 62.8,169.5 62.5,158.3 l 5.1,3.2 c 2.2,6.9 5.0,13.2 5.2,20.5 z" />
   <path style="fill:#979900;stroke:#ffffca;stroke-width:1" d="m 108.9,170.6 c -7.3,-8.2 -17.5,-7.8 -27.5,-7.7 l -2.1,4.2 c 9.4,4.7 19.4,8.3 29.6,3.5 z"/>
   <path style="fill:#979900;stroke:#ffffca;stroke-width:1" d="m 76.2,168.1 6.3,-6.4 c 5.9,5.8 13.6,10.2 16.9,17.7 -9.7,-0.1 -17.0,-4.5 -23.2,-11.3 z" />
   <path style="fill:#979900;stroke:#ffffca;stroke-width:1" d="m 70.7,159.6 0.9,8.6 c 9.6,0.1 21.8,-0.1 29.4,-7.0 -9.2,-4.5 -20.5,-2.9 -30.3,-1.6 z" />
   <path style="fill:#979900;stroke:#ffffca;stroke-width:1" d="m 62.5,158.3 c 6.1,8.4 10.3,20.5 20.8,24.5 2.2,-8.4 -2.7,-13.9 -7.8,-20.0 5.1,-1.1 11.1,-2.1 11.1,-8.1 -8.6,-3.2 -16.4,-0.1 -24.2,3.7 z" />
   <path style="fill:#979900;stroke:#ffffca;stroke-width:1" d="M 75.6,162.7 62.5,158.3" />
</svg>
