<svg version="1.1" id="svg1" width="200" height="200" viewBox="0 0 200 200"
   xmlns="http://www.w3.org/2000/svg"
   xmlns:svg="http://www.w3.org/2000/svg">
   <path style="fill:#1e5f7b;fill-opacity:1;stroke:#cbf0ff;stroke-width:2" d="m 87.8,81.4 a 27.8,24.7 0 0 0 -26.8,25.6 27.8,24.7 0 0 0 28.9,23.7 27.8,24.7 0 0 0 26.8,-25.6 v -0.0 A 27.8,24.7 0 0 0 87.8,81.4 Z m -1.2,7.6 a 8.3,8.3 0 0 1 8.6,7.9 v 0.0 a 8.3,8.3 0 0 1 -8.0,8.6 8.3,8.3 0 0 1 -8.6,-7.9 8.3,8.3 0 0 1 8.0,-8.6 z M 111.3,18.8 C 72.3,48.8 36.9,78.7 2.7,108.7 33.9,133.4 68.3,155.4 102.4,177.7 134.8,147.0 166.9,114.0 198.1,75.5 173.1,54.6 143.6,36.0 111.3,18.8 Z m -0.9,16.9 c 25.3,12.5 47.2,27.5 68.3,43.0 C 155.6,105.6 130.7,131.6 104.5,156.8 76.5,141.8 49.6,126.1 27.1,106.9 53.5,83.1 80.4,59.4 110.4,35.6 Z" />
</svg>
