<svg version="1.1" id="svg1" width="200" height="200" viewBox="0 0 200 200"
   xmlns="http://www.w3.org/2000/svg"
   xmlns:svg="http://www.w3.org/2000/svg">
   <path style="fill:#247570;stroke:#ccfbff;stroke-width:2" d="m 110.7,45.0 c 0.2,10.2 -4.3,18.9 -10.0,19.3 -5.7,0.4 -10.6,-7.6 -10.8,-17.8 -0.2,-10.2 4.3,-18.9 10.0,-19.3 5.7,-0.4 10.6,7.6 10.8,17.8 M 99.6,133.9 87.8,96.3 c 3.1,-1.2 9.5,-4.3 6.3,-9.8 -1.4,-2.3 -7.5,-6.1 -8.9,4.3 0,0 -2.9,-7.3 -5.1,-10.7 C 71.8,72.1 67.5,65.4 66.7,53.6 68.4,38.9 72.2,34.5 89.5,29.0 78.0,45.1 76.8,54.5 94.6,66.9 v 5.7 h 9.4 v -5.7 c 13.8,-6.0 20.0,-13.2 8.3,-37.9 11.4,4.1 20.9,11.3 21.6,24.1 0.3,11.5 -9.1,18.2 -14.7,26.8 -2.0,3.4 -4.2,10.9 -4.2,10.9 -1.7,-4.5 -5.7,-9.5 -9.9,-4.4 -1.2,1.9 -3.1,6.9 7.4,9.9 z M 75.7,5.5 C 51.5,21.4 12.8,35.8 4.8,67.4 2.3,93.6 27.9,102.8 39.2,119.1 c 5.5,8.0 -1.8,12.0 18.2,36.5 17.6,14.3 17.4,24.3 5.4,41.8 10.9,-5.4 16.4,-13.3 17.2,-25.5 5.0,4.6 10.6,4.3 16.0,6.1 C 90.9,174.2 85.3,171.5 81.1,165.1 82.5,136.0 63.3,129.5 50.9,112.3 48.0,107.7 46.3,96.9 46.3,96.9 60.8,110.3 84.2,126.6 80.7,148.9 105.8,119.0 50.8,90.0 45.5,74.5 37.6,51.4 66.4,16.1 75.7,5.5 Z M 45.7,33.8 C 38.8,44.3 35.1,55.9 35.8,68.2 24.1,50.6 36.2,42.0 45.7,33.8 Z M 24.0,51.7 c -1.4,12.2 1.6,22.8 9.4,31.8 -0.7,3.7 -0.3,7.5 -0.0,10.1 C 18.1,79.5 16.8,68.3 24.0,51.7 Z m 29.5,78.0 c 11.2,9.4 14.2,13.6 18.6,29.8 C 60.5,146.7 58.2,142.3 53.5,129.7 Z M 121.6,5.5 c 24.1,15.9 62.9,30.3 70.8,61.9 2.5,26.1 -23.0,35.4 -34.4,51.7 -5.5,8.0 1.8,12.0 -18.2,36.5 -16.3,15.2 -19.2,21.1 -5.4,41.8 -6.3,-3.2 -16.7,-9.5 -17.2,-25.5 -5.0,4.6 -10.6,4.3 -16.0,6.1 5.2,-3.9 10.7,-6.5 15.0,-13.0 -1.4,-29.1 17.8,-35.5 30.2,-52.8 2.9,-4.6 4.6,-15.3 4.6,-15.3 -14.5,13.4 -37.9,29.7 -34.4,51.9 C 91.5,119.0 146.5,89.9 151.8,74.5 159.7,51.4 130.9,16.1 121.6,5.5 Z m 29.9,28.3 c 6.9,10.5 10.7,22.1 10.0,34.4 9.7,-15.7 2.9,-25.7 -10.0,-34.4 z m 21.7,17.9 c 0.6,16.0 -1.6,22.1 -10.2,32.0 0.7,3.7 0.3,8.7 0.0,11.3 15.2,-14.0 17.5,-26.6 10.2,-43.2 z m -29.5,78.0 c -11.2,9.4 -14.2,13.6 -18.6,29.8 11.6,-12.8 13.8,-17.2 18.6,-29.8 z" />
</svg>
