<svg version="1.1" width="200" height="200" viewBox="0 0 200 200"
   xmlns="http://www.w3.org/2000/svg"
   xmlns:svg="http://www.w3.org/2000/svg">
   <path style="fill:#1e7b2a;fill-opacity:1;stroke:#ccffce;stroke-width:2;stroke-linejoin:round;stroke-dasharray:none;stroke-dashoffset:2.3;stroke-opacity:1;paint-order:markers fill stroke" d="m 72.4,197.3 -20.8,-11.1 c 3.5,-0.2 5.7,-2.1 8.2,-3.6 -30.6,-8.3 -35.2,-15.7 -43.3,-32.1 4.1,3.7 9.0,5.2 14.0,6.0 -13.4,-14.1 -16.6,-20.9 -10.4,-45.0 4.4,15.9 9.1,20.5 28.6,17.4 -6.7,-4.9 -10.6,-10.5 -10.1,-17.4 2.9,3.3 6.3,5.3 10.7,4.1 C 28.7,82.6 29.2,67.7 72.6,36.2 54.6,64.2 61.4,71.8 73.8,81.6 66.0,29.7 115.6,42.4 101.4,1.9 c 10.7,10.4 22.5,23.2 20.3,42.8 -4.7,16.1 -16.2,22.9 -2.7,39.4 21.6,12.5 44.6,18.6 22.5,51.3 23.9,-14.8 30.9,-32.4 3.4,-47.9 31.5,4.7 72.0,33.1 -3.8,77.6 -3.2,2.4 -7.5,9.5 -7.5,9.5 10.0,-5.2 15.8,-4.5 22.8,-5.5 -12.1,7.5 -25.7,14.7 -29.3,23.7 l -6.1,-1.0 c 4.9,-8.6 8.8,-17.4 9.4,-27.3 -1.7,-0.5 -3.9,0.5 -6.5,2.6 6.7,-54.1 -18.0,-51.1 -26.6,-35.5 -7.4,-30.4 -32.8,-3.3 -26.1,35.0 -2.2,-2.9 -6.0,-2.9 -10.2,-1.7 -2.0,18.9 9.3,2.0 11.4,32.4 z" />
</svg>
