<svg version="1.1" id="svg1" width="200" height="200" viewBox="0 0 200 200"
   xmlns="http://www.w3.org/2000/svg"
   xmlns:svg="http://www.w3.org/2000/svg">
   <circle style="fill:#451386;stroke:#f1c2ff;stroke-width:2" cx="101.1" cy="99.9" r="96.5" id="circle1" />
   <circle style="fill:#5c1bb1;stroke:#e384ff;stroke-width:2" cx="101.1" cy="99.9" r="76.3" id="circle2" />
   <path style="fill:none;stroke:#b143ff;stroke-width2" d="m 192.8,130.1 -9.1,-10.3 -8.6,-1.3 c 0,0 -3.9,-7.1 -7.3,-8.8 -2.9,-1.4 -6.8,1.0 -9.6,-0.5 -2.9,-1.6 -7.0,-6.4 -7.0,-6.4 m 46.1,-10.6 -11.9,5.0 -8.1,-0.2 c 0,0 -9.7,2.2 -14.7,3.0 -6.7,1.1 -13.9,5.1 -20.1,2.5 -1.8,-0.8 -1.9,-3.6 -3.5,-4.7 -4.1,-2.6 -9.5,-3.9 -14.3,-3.0 -2.1,0.4 -5.5,3.5 -5.5,3.5 m 8.0,94.6 c 0,0 1.0,-11.2 -1.8,-15.7 -2.7,-4.3 -10.3,-3.8 -12.7,-8.2 -1.5,-2.7 1.2,-6.5 0,-9.4 -1.3,-3.1 -7.2,-7.2 -7.2,-7.2 m -4.4,44.2 c 0,0 -6.9,-9.1 -6.4,-14.3 0.5,-6.0 8.3,-9.2 10.2,-14.8 1.6,-4.8 1.8,-10.1 0.7,-15.0 -1.2,-5.0 -7.5,-8.4 -7.5,-13.6 -0.0,-2.1 3.1,-5.7 3.1,-5.7 M 128.2,7.2 c 0,0 -1.0,8.6 -4.2,10.6 -1.9,1.2 -4.7,-1.3 -6.7,-0.4 -2.7,1.2 -5.7,6.8 -5.7,6.8 -2.7,3.3 -6.1,11.2 -6.1,11.2 m -4.4,-32.1 c 0,0 3.7,9.5 4.4,14.5 0.9,5.8 -0.9,11.8 0,17.7 0.3,2.3 1.7,4.4 2.0,6.7 0.4,2.9 0,8.8 0,8.8 M 9.7,69.0 c 0,0 9.5,1.8 14.2,2.0 3.7,0.2 7.4,-1.1 11.0,-0.4 3.1,0.7 5.4,3.6 8.5,4.2 2.1,0.4 6.5,-0.5 6.5,-0.5 M 21.6,45.1 c 0,0 4.2,11.0 8.7,14.2 1.5,1.1 3.8,0.3 5.4,1.2 5.8,3.1 14.2,13.8 14.2,13.8 0,0 9.3,2.1 13.4,4.2 3.5,1.8 9.4,7.1 9.4,7.1" />
</svg>
