<svg version="1.1" id="svg1" width="200" height="200" viewBox="0 0 200 200"
   xmlns="http://www.w3.org/2000/svg"
   xmlns:svg="http://www.w3.org/2000/svg">
   <path style="fill:#970202;fill-rule:nonzero;stroke:none;stroke-width:0" d="m 126.7,129.8 1.3,0.8 -11.4,19.1 -1.1,-1.5 z M 73.1,130.3 100.0,14.9 127.2,130.3 115.7,149.3 100.0,78.0 84.6,149.3 Z" />
   <path style="fill:#970202;stroke:#ffcccc;stroke-width:2;stroke-linejoin:round" d="m 69.0,52.2 10.0,32.5 M 54.0,59.6 76.2,87.0 81.7,82.4 86.6,44.6 C 79.9,45.3 74.0,47.7 69.0,52.2 62.9,52.7 58.4,56.1 54.0,59.6 Z M 67.9,122.4 c -0.2,1.9 -1.7,2.1 -3.0,2.3 -3.8,0.6 -7.8,-0.7 -11.4,0.7 -5.3,2.1 -12.1,10.8 -12.1,10.8 0,0 -8.6,-10.4 -11.1,-16.6 -2.5,-6.0 -3.9,-12.7 -3.7,-19.2 0.1,-4.7 1.4,-9.5 3.4,-13.8 2.8,-6.1 7.4,-11.4 11.8,-16.4 2.3,-2.6 7.6,-7.0 7.6,-7.0 l 24.3,30.8 c -0.0,-0.3 -6.7,6.2 -7.8,11.4 -0.6,2.7 0.1,5.6 0.4,8.4 0.4,2.8 1.9,5.6 1.7,8.4 z m 63.1,-70.2 -10.0,32.5 m 24.9,-25.1 -22.2,27.4 -5.5,-4.6 -4.9,-37.7 c 6.7,0.7 12.6,3.1 17.6,7.6 6.1,0.5 10.6,3.9 15.0,7.4 z m -13.9,62.8 c 0.2,1.9 1.7,2.1 3.0,2.3 3.8,0.6 7.8,-0.7 11.4,0.7 5.3,2.1 12.1,10.8 12.1,10.8 0,0 8.6,-10.4 11.1,-16.6 2.5,-6.0 3.9,-12.7 3.7,-19.2 -0.1,-4.7 -1.4,-9.5 -3.4,-13.8 -2.8,-6.1 -7.4,-11.4 -11.8,-16.4 -2.3,-2.6 -7.6,-7.0 -7.6,-7.0 l -24.3,30.8 c 0.0,-0.3 6.7,6.2 7.8,11.4 0.6,2.7 -0.1,5.6 -0.4,8.4 -0.4,2.8 -1.9,5.6 -1.7,8.4 z"/>
   <path style="fill:#970202;stroke:#ffcccc;stroke-width:2" d="M 68.3,100.2 C 59.1,94.2 49.4,88.0 39.2,81.7 c -1.8,-0.5 -3.6,0.1 -5.4,0.7 l -12.3,-13.8 19.5,5.4 c -0.9,2.5 -0.1,3.1 0.4,3.8 9.2,6.8 18.8,13.5 28.9,19.9 z m -2.7,9.5 c -10.6,-2.3 -21.0,-5.4 -31.8,-6.6 -3.8,0.4 -3.6,2.7 -4.9,4.3 L 4.4,96.1 32.8,92.3 c -0.2,2.2 0.2,4.2 2.1,5.6 10.0,3.1 20.5,5.1 30.8,7.6 z m 0.6,4.3 c -9.5,1.8 -18.8,4.2 -28.5,5.0 -2.3,0.0 -3.6,-1.2 -5.0,-2.2 l -14.7,9.9 17.7,0.3 c 0.8,-1.4 1.2,-3.6 2.8,-3.9 9.5,-2.9 19.0,-4.0 28.5,-5.8 z m 65.5,-13.8 c 9.3,-6.0 18.9,-12.2 29.1,-18.5 1.8,-0.5 3.6,0.1 5.4,0.7 l 12.3,-13.8 -19.5,5.4 c 0.9,2.5 0.1,3.1 -0.4,3.8 -9.2,6.8 -18.8,13.5 -28.9,19.9 z m 2.7,9.5 c 10.6,-2.3 21.0,-5.4 31.8,-6.6 3.8,0.4 3.6,2.7 4.9,4.3 l 24.5,-11.4 -28.4,-3.8 c 0.2,2.2 -0.2,4.2 -2.1,5.6 -10.0,3.1 -20.5,5.1 -30.8,7.6 z m -0.6,4.3 c 9.5,1.8 18.8,4.2 28.5,5.0 2.3,0.0 3.6,-1.2 5.0,-2.2 l 14.7,9.9 -17.7,0.3 c -0.8,-1.4 -1.2,-3.6 -2.8,-3.9 -9.5,-2.9 -19.0,-4.0 -28.5,-5.8 z" />
   <path style="fill:#970202;stroke:#ffcccc;stroke-width:2" d="m 142.7,149.2 c 0.1,2.9 -2.2,5.4 -5.1,5.5 -2.9,0.1 -5.4,-2.2 -5.5,-5.1 -0.1,-2.9 2.2,-5.4 5.1,-5.5 2.9,-0.1 5.4,2.2 5.5,5.1 m -74.2,0.0 c 0.1,2.9 -2.2,5.4 -5.1,5.5 -2.9,0.1 -5.4,-2.2 -5.5,-5.1 -0.1,-2.9 2.2,-5.4 5.1,-5.5 2.9,-0.1 5.4,2.2 5.5,5.1 m 4.5,-18.9 c -3.6,-1.9 -7.6,-2.7 -11.6,-2.4 -5.4,0.4 -10.4,2.8 -14.1,6.7 -6.6,7.0 -7.7,17.6 -2.8,25.8 5.0,8.3 14.9,12.2 24.2,9.6 9.3,-2.6 15.7,-11.1 15.7,-20.7 m 31.2,0 c -0.0,9.6 6.4,18.1 15.7,20.7 9.3,2.6 19.2,-1.3 24.2,-9.6 5.0,-8.3 3.9,-18.8 -2.8,-25.8 -3.7,-3.9 -8.7,-6.3 -14.1,-6.7 -4.0,-0.3 -8.0,0.5 -11.6,2.4 m -64.5,7.0 c 6.7,-0.3 12.3,5.0 12.6,11.6 v 0.0 c 0.3,6.7 -5.0,12.3 -11.6,12.6 -6.7,0.3 -12.3,-5.0 -12.6,-11.6 -0.3,-6.7 5.0,-12.3 11.6,-12.6 z m 74.4,0 c 6.7,-0.3 12.3,5.0 12.6,11.6 v 0.0 c 0.3,6.7 -5.0,12.3 -11.6,12.6 -6.7,0.3 -12.3,-5.0 -12.6,-11.6 -0.3,-6.7 5.0,-12.3 11.6,-12.6 z" />
   <path style="fill:none;stroke:#ffcccc;stroke-width:2;stroke-linejoin:round" d="m 84.6,149.3 15.4,-71.3 15.7,71.3 M 72.5,131.2 99.3,16.0 128.0,130.6" />
</svg>
