<?xml version="1.0" encoding="UTF-8" standalone="no"?>
<svg
   version="1.1"
   id="svg1"
   width="200"
   height="200"
   viewBox="0 0 200 200"
   sodipodi:docname="Vendor Uniques.svg"
   inkscape:version="1.3.2 (091e20e, 2023-11-25, custom)"
   xmlns:inkscape="http://www.inkscape.org/namespaces/inkscape"
   xmlns:sodipodi="http://sodipodi.sourceforge.net/DTD/sodipodi-0.dtd"
   xmlns="http://www.w3.org/2000/svg"
   xmlns:svg="http://www.w3.org/2000/svg">
  <defs
     id="defs3" />
  <sodipodi:namedview
     id="namedview3"
     pagecolor="#ffffff"
     bordercolor="#000000"
     borderopacity="0.25"
     inkscape:showpageshadow="2"
     inkscape:pageopacity="0.0"
     inkscape:pagecheckerboard="0"
     inkscape:deskcolor="#d1d1d1"
     inkscape:zoom="6.085"
     inkscape:cx="99.917831"
     inkscape:cy="100"
     inkscape:window-width="2560"
     inkscape:window-height="1494"
     inkscape:window-x="-11"
     inkscape:window-y="-11"
     inkscape:window-maximized="1"
     inkscape:current-layer="svg1" />
  <path
     style="fill:#999100;stroke:#fffacc;stroke-width:2"
     d="M 152.0,52.5 123.0,45.8 148.9,44.4 125.3,28.2 152.2,38.5 134.7,12.8 157.2,32.8 154.2,9.3 165.3,34.9 Z m 0.1,0.2 1.1,31.5 6.5,-30.2 10.2,26.2 -4.9,-28.8 18.8,20.3 -13.1,-23.8 18.8,8.0 -19.3,-16.3 z"
     id="path1" />
  <ellipse
     style="fill:#980000;stroke:#fffacc;stroke-width:1.98992"
     cx="147.3018"
     cy="-72.026779"
     rx="7.5999999"
     ry="12.770349"
     transform="matrix(0.8,0.6,-0.70710678,0.70710678,0,0)"
     id="ellipse1" />
  <path
     style="fill:#999100;stroke:#fffacc;stroke-width:2"
     d="m 123.6,70.6 c 13.6,-15.2 25.9,-37.3 41.1,-44.5 0,0 -9.8,9.8 -10.7,16.2 -0.1,0.9 0.1,2.1 0.9,2.6 0.8,0.6 0.9,0.3 1.8,0 6.1,-2.0 15.4,-11.5 15.4,-11.5 0,0 -7.7,9.1 -9.2,15.0 -0.1,0.4 0.2,1.0 0.5,1.4 0.5,0.5 1.1,1.0 1.8,1.0 6.5,-0.5 15.9,-11.5 15.9,-11.5 -0.1,1.6 -13.5,23.5 -53.6,37.2 z"
     id="path2" />
  <path
     style="fill:#503716;stroke:#fffacc;stroke-width:2"
     d="m 10.4,176.7 c 3.7,-6.1 5.1,-13.0 5.5,-20.1 2.1,-1.0 4.1,-2.0 4.6,-4.4 6.5,-1.1 12.6,-3.4 19.1,-7.1 0,0 6.3,-4.9 8.9,-7.8 3.8,-4.2 9.8,-13.9 9.8,-13.9 l 63.9,-57.9 5.3,-0.3 7.3,7.7 0.0,4.1 -64.9,60.0 c 0,0 -9.6,3.7 -13.8,6.7 -4.1,2.8 -6.8,6.4 -10.5,11.1 -4.5,5.7 -6.2,10.3 -7.2,15.7 -1.5,0.8 -3.1,0.3 -4.2,3.9 -9.0,0.3 -15.5,2.4 -21.2,5.2 z"
     id="path3" />
</svg>
