<svg version="1.1" id="svg1" width="200" height="200" viewBox="0 0 200 200"
   xmlns="http://www.w3.org/2000/svg"
   xmlns:svg="http://www.w3.org/2000/svg">
   <path style="fill:#6f4329;stroke:#fffacc;stroke-width:2" d="m 11.3,131.1 c -3.4,17.7 -5.8,36.1 -8.1,54.5 l 66.6,1.6 0.9,-4.8 7.5,-0.8 0.8,-7.4 6.0,-0.6 0.3,-16.2 46.3,-44.4 33.6,-12.0 14.6,2.2 -0.3,-10.4 17.4,3.0 -2.6,-48.2 -32.5,-4.4 -15.6,-30.4 -37.1,11.9 -0.0,11.5 -7.3,1.9 -1.8,15.7 -57.5,57.6 -18.5,6.5 -0.6,5.2 -6.0,0.9 -1.5,5.5 z" />
   <path style="fill:none;stroke:#fffacc;stroke-width:2" d="m 54.3,139.4 -30.2,3.2 -4.4,29.1 33.3,-0.2 z m 109.5,-92.9 27.4,4.1 1.8,40.1 -49.9,-7.5 -4.7,23.8 -39.1,-0.7 -1.9,26.7 -31.0,4.7 -1.6,45.8 -56.2,-1.7 7.0,-47.6 40.5,-6.8 4.4,-31.3 26.9,-1.7 4.1,-28.3 21.6,-9.3 0.2,-28.8 32.0,-10.1 7.4,25.3 z" />
   <path style="fill:#910707;stroke:#fffacc;stroke-width:2" d="m 180.4,45.8 -23.0,12.6 -37.2,16.4 -44.1,21.1 -38.0,18.3 2.9,-6.9 8.1,-8.5 7.6,-7.2 4.5,-4.1 12.0,-12.6 6.1,-6.8 5.6,-9.2 4.4,-5.5 66.0,-32.1 8.8,7.9 4.3,0.7 9.5,8.7 z" />
   <path style="fill:#910707;stroke:#fffacc;stroke-width:2" d="m 146.3,11.4 -26.8,115.4 10.9,-10.1 5.0,-0.7 2.1,2.6 10.1,-4.1 18.2,1.2 -7.0,-45.2 -0.1,-20.8 2.4,-25.6 -2.0,-6.7 -4.1,-3.6 -4.6,-2.1 z" />
</svg>
